<svg width="28" height="28" viewBox="0 0 28 28" fill="none" xmlns="http://www.w3.org/2000/svg">
<path d="M14 20.6626C14.0781 20.6626 14.166 20.6406 14.2637 20.5967C14.3662 20.5576 14.4565 20.5137 14.5347 20.4648C15.9116 19.5859 17.103 18.6655 18.1089 17.7036C19.1196 16.7368 19.8984 15.7456 20.4453 14.73C20.9971 13.7095 21.2729 12.6792 21.2729 11.6392C21.2729 10.9897 21.168 10.3965 20.958 9.85938C20.7529 9.31738 20.4648 8.84863 20.0938 8.45312C19.7275 8.05762 19.2954 7.75244 18.7974 7.5376C18.3042 7.32275 17.7695 7.21533 17.1934 7.21533C16.4805 7.21533 15.853 7.39844 15.311 7.76465C14.769 8.12598 14.332 8.60938 14 9.21484C13.6729 8.61426 13.2383 8.13086 12.6963 7.76465C12.1543 7.39844 11.5244 7.21533 10.8066 7.21533C10.2305 7.21533 9.6958 7.32275 9.20264 7.5376C8.70947 7.75244 8.27734 8.05762 7.90625 8.45312C7.53516 8.84863 7.24463 9.31738 7.03467 9.85938C6.82959 10.3965 6.72705 10.9897 6.72705 11.6392C6.72705 12.6792 7.00049 13.7095 7.54736 14.73C8.09912 15.7456 8.88037 16.7368 9.89111 17.7036C10.9019 18.6655 12.0957 19.5859 13.4727 20.4648C13.5508 20.5137 13.6387 20.5576 13.7363 20.5967C13.8389 20.6406 13.9268 20.6626 14 20.6626Z" fill="white"/>
</svg>
