<svg width="28" height="28" viewBox="0 0 28 28" fill="none" xmlns="http://www.w3.org/2000/svg">
<path d="M14 21.3906C13.4583 21.3906 12.9479 21.2031 12.4688 20.8281C11.9948 20.4531 11.5755 19.9271 11.2109 19.25C10.8516 18.5729 10.5677 17.7786 10.3594 16.8672C10.1562 15.9505 10.0547 14.9531 10.0547 13.875C10.0547 12.7969 10.1562 11.7995 10.3594 10.8828C10.5677 9.96094 10.8516 9.16146 11.2109 8.48438C11.5703 7.80208 11.987 7.27344 12.4609 6.89844C12.9401 6.52344 13.4531 6.33594 14 6.33594C14.5469 6.33594 15.0573 6.52344 15.5312 6.89844C16.0104 7.27344 16.4297 7.80208 16.7891 8.48438C17.1536 9.16146 17.4375 9.96094 17.6406 10.8828C17.8438 11.7995 17.9453 12.7969 17.9453 13.875C17.9453 14.9531 17.8411 15.9505 17.6328 16.8672C17.4297 17.7786 17.1458 18.5729 16.7812 19.25C16.4219 19.9271 16.0026 20.4531 15.5234 20.8281C15.0495 21.2031 14.5417 21.3906 14 21.3906ZM14 7.28125C13.6198 7.28125 13.2552 7.45833 12.9062 7.8125C12.5573 8.16146 12.2474 8.64062 11.9766 9.25C11.7057 9.85938 11.4922 10.5625 11.3359 11.3594C11.1797 12.151 11.1016 12.9896 11.1016 13.875C11.1016 14.75 11.1797 15.5807 11.3359 16.3672C11.4922 17.1536 11.7057 17.8542 11.9766 18.4688C12.2474 19.0781 12.5573 19.5573 12.9062 19.9062C13.2552 20.2604 13.6198 20.4375 14 20.4375C14.3802 20.4375 14.7448 20.2604 15.0938 19.9062C15.4427 19.5573 15.7526 19.0781 16.0234 18.4688C16.2943 17.8542 16.5078 17.1536 16.6641 16.3672C16.8203 15.5807 16.8984 14.75 16.8984 13.875C16.8984 12.9896 16.8203 12.151 16.6641 11.3594C16.5078 10.5625 16.2943 9.85938 16.0234 9.25C15.7526 8.64062 15.4427 8.16146 15.0938 7.8125C14.7448 7.45833 14.3802 7.28125 14 7.28125ZM13.4922 6.44531H14.5156V21.2422H13.4922V6.44531ZM14 16.7969C14.8021 16.7969 15.5625 16.8646 16.2812 17C17 17.1302 17.6458 17.3203 18.2188 17.5703C18.7969 17.8151 19.2682 18.1042 19.6328 18.4375L18.8438 19.0859C18.5 18.8151 18.0859 18.5859 17.6016 18.3984C17.1224 18.2057 16.5781 18.0625 15.9688 17.9688C15.3646 17.8698 14.7083 17.8203 14 17.8203C13.2917 17.8203 12.6328 17.8698 12.0234 17.9688C11.4193 18.0625 10.875 18.2057 10.3906 18.3984C9.91146 18.5859 9.5 18.8151 9.15625 19.0859L8.36719 18.4375C8.73177 18.1042 9.20052 17.8151 9.77344 17.5703C10.3516 17.3203 11 17.1302 11.7188 17C12.4375 16.8646 13.1979 16.7969 14 16.7969ZM21.2109 13.3438V14.3672H6.78906V13.3438H21.2109ZM14 10.9609C13.1979 10.9609 12.4375 10.8958 11.7188 10.7656C11 10.6302 10.3516 10.4401 9.77344 10.1953C9.20052 9.94531 8.73177 9.65365 8.36719 9.32031L9.15625 8.67188C9.5 8.94271 9.91146 9.17448 10.3906 9.36719C10.875 9.55469 11.4193 9.69792 12.0234 9.79688C12.6328 9.89062 13.2917 9.9375 14 9.9375C14.7083 9.9375 15.3646 9.89062 15.9688 9.79688C16.5781 9.69792 17.1224 9.55469 17.6016 9.36719C18.0859 9.17448 18.5 8.94271 18.8438 8.67188L19.6328 9.32031C19.2682 9.65365 18.7969 9.94531 18.2188 10.1953C17.6458 10.4401 17 10.6302 16.2812 10.7656C15.5625 10.8958 14.8021 10.9609 14 10.9609ZM14 21.8281C12.9115 21.8281 11.8854 21.6198 10.9219 21.2031C9.96354 20.7865 9.11719 20.2109 8.38281 19.4766C7.64844 18.7422 7.07292 17.8958 6.65625 16.9375C6.23958 15.974 6.03125 14.9479 6.03125 13.8594C6.03125 12.7708 6.23958 11.7474 6.65625 10.7891C7.07292 9.82552 7.64583 8.97656 8.375 8.24219C9.10938 7.50781 9.95573 6.93229 10.9141 6.51562C11.8776 6.09896 12.9036 5.89062 13.9922 5.89062C15.0807 5.89062 16.1068 6.09896 17.0703 6.51562C18.0339 6.93229 18.8828 7.50781 19.6172 8.24219C20.3516 8.97656 20.9271 9.82552 21.3438 10.7891C21.7604 11.7474 21.9688 12.7708 21.9688 13.8594C21.9688 14.9479 21.7604 15.974 21.3438 16.9375C20.9271 17.8958 20.3516 18.7422 19.6172 19.4766C18.8828 20.2109 18.0339 20.7865 17.0703 21.2031C16.112 21.6198 15.0885 21.8281 14 21.8281ZM14 20.7656C14.9427 20.7656 15.8307 20.5833 16.6641 20.2188C17.4974 19.8594 18.2318 19.362 18.8672 18.7266C19.5026 18.0911 20 17.3568 20.3594 16.5234C20.724 15.6901 20.9062 14.8021 20.9062 13.8594C20.9062 12.9167 20.724 12.0286 20.3594 11.1953C20 10.362 19.5 9.6276 18.8594 8.99219C18.224 8.35677 17.4896 7.85938 16.6562 7.5C15.8229 7.13542 14.9349 6.95312 13.9922 6.95312C13.0495 6.95312 12.1615 7.13542 11.3281 7.5C10.4948 7.85938 9.76042 8.35677 9.125 8.99219C8.49479 9.6276 7.9974 10.362 7.63281 11.1953C7.27344 12.0286 7.09375 12.9167 7.09375 13.8594C7.09375 14.8021 7.27344 15.6901 7.63281 16.5234C7.9974 17.3568 8.4974 18.0911 9.13281 18.7266C9.76823 19.362 10.5026 19.8594 11.3359 20.2188C12.1693 20.5833 13.0573 20.7656 14 20.7656Z" fill="white"/>
</svg>
