<svg width="28" height="28" viewBox="0 0 28 28" fill="none" xmlns="http://www.w3.org/2000/svg">
<path d="M8.64844 21.4531C8.8099 21.5781 8.99219 21.6198 9.19531 21.5781C9.39844 21.5417 9.61979 21.4375 9.85938 21.2656L13.9922 18.2266L18.1328 21.2656C18.3724 21.4375 18.5938 21.5417 18.7969 21.5781C19 21.6198 19.1823 21.5781 19.3438 21.4531C19.5052 21.3333 19.6016 21.1719 19.6328 20.9688C19.6693 20.7656 19.638 20.5234 19.5391 20.2422L17.9062 15.3828L22.0781 12.3828C22.3229 12.2109 22.4922 12.0339 22.5859 11.8516C22.6797 11.6693 22.6953 11.4818 22.6328 11.2891C22.5703 11.1016 22.4479 10.9609 22.2656 10.8672C22.0833 10.7734 21.8411 10.7292 21.5391 10.7344L16.4219 10.7656L14.8672 5.88281C14.7734 5.59635 14.6536 5.38021 14.5078 5.23438C14.3672 5.08854 14.1953 5.01562 13.9922 5.01562C13.7943 5.01562 13.6224 5.08854 13.4766 5.23438C13.3359 5.38021 13.2188 5.59635 13.125 5.88281L11.5703 10.7656L6.45312 10.7344C6.15104 10.7292 5.90885 10.7734 5.72656 10.8672C5.54427 10.9609 5.42188 11.1016 5.35938 11.2891C5.29688 11.4818 5.3125 11.6693 5.40625 11.8516C5.5 12.0339 5.66927 12.2109 5.91406 12.3828L10.0859 15.3828L8.45312 20.2422C8.35417 20.5234 8.32031 20.7656 8.35156 20.9688C8.38802 21.1719 8.48698 21.3333 8.64844 21.4531Z" fill="white"/>
</svg>
