<svg width="28" height="28" viewBox="0 0 28 28" fill="none" xmlns="http://www.w3.org/2000/svg">
<path d="M7.75391 19.7964C7.19531 19.7964 6.67057 19.6906 6.17969 19.479C5.69303 19.2716 5.26351 18.9818 4.89111 18.6094C4.52295 18.2412 4.23307 17.8138 4.02148 17.3271C3.81413 16.8405 3.71045 16.3179 3.71045 15.7593C3.71045 15.2007 3.81413 14.6781 4.02148 14.1914C4.23307 13.7005 4.52295 13.271 4.89111 12.9028C5.26351 12.5304 5.69303 12.2406 6.17969 12.0332C6.67057 11.8258 7.19531 11.7222 7.75391 11.7222C8.3125 11.7222 8.83512 11.8258 9.32178 12.0332C9.81266 12.2406 10.2422 12.5304 10.6104 12.9028C10.9827 13.271 11.2726 13.7005 11.48 14.1914C11.6873 14.6781 11.791 15.2007 11.791 15.7593C11.791 16.3136 11.6852 16.8363 11.4736 17.3271C11.2663 17.8138 10.9764 18.2412 10.604 18.6094C10.2358 18.9818 9.80843 19.2716 9.32178 19.479C8.83512 19.6906 8.3125 19.7964 7.75391 19.7964ZM7.75391 18.7998C8.17285 18.7998 8.56641 18.7215 8.93457 18.5649C9.30273 18.4084 9.62646 18.1904 9.90576 17.9111C10.1851 17.6318 10.403 17.3081 10.5596 16.9399C10.7161 16.5718 10.7944 16.1782 10.7944 15.7593C10.7944 15.3403 10.7161 14.9468 10.5596 14.5786C10.403 14.2104 10.1851 13.8867 9.90576 13.6074C9.62646 13.3281 9.30273 13.1102 8.93457 12.9536C8.56641 12.797 8.17285 12.7188 7.75391 12.7188C7.33496 12.7188 6.94141 12.797 6.57324 12.9536C6.20508 13.1102 5.88135 13.3281 5.60205 13.6074C5.32275 13.8867 5.10482 14.2104 4.94824 14.5786C4.79167 14.9425 4.71338 15.3361 4.71338 15.7593C4.71338 16.1825 4.79167 16.5781 4.94824 16.9463C5.10482 17.3145 5.32275 17.6382 5.60205 17.9175C5.88135 18.1925 6.20296 18.4084 6.56689 18.5649C6.93506 18.7215 7.33073 18.7998 7.75391 18.7998ZM20.2524 19.7964C19.6938 19.7964 19.1691 19.6927 18.6782 19.4854C18.1916 19.278 17.762 18.9881 17.3896 18.6157C17.0173 18.2476 16.7253 17.8201 16.5137 17.3335C16.3063 16.8426 16.2026 16.3179 16.2026 15.7593C16.2026 15.2007 16.3063 14.6781 16.5137 14.1914C16.7253 13.7005 17.0173 13.271 17.3896 12.9028C17.762 12.5347 18.1916 12.2469 18.6782 12.0396C19.1691 11.828 19.6938 11.7222 20.2524 11.7222C20.811 11.7222 21.3337 11.828 21.8203 12.0396C22.307 12.2469 22.7344 12.5347 23.1025 12.9028C23.4749 13.271 23.7648 13.7005 23.9722 14.1914C24.1838 14.6781 24.2896 15.2007 24.2896 15.7593C24.2896 16.3179 24.1838 16.8405 23.9722 17.3271C23.7648 17.8138 23.4749 18.2412 23.1025 18.6094C22.7344 18.9818 22.307 19.2716 21.8203 19.479C21.3337 19.6906 20.811 19.7964 20.2524 19.7964ZM20.2524 18.7998C20.6714 18.7998 21.0649 18.7215 21.4331 18.5649C21.8013 18.4084 22.1229 18.1904 22.3979 17.9111C22.6772 17.6318 22.8952 17.3081 23.0518 16.9399C23.2126 16.5718 23.293 16.1782 23.293 15.7593C23.293 15.3403 23.2126 14.9489 23.0518 14.585C22.8952 14.2168 22.6772 13.8931 22.3979 13.6138C22.1229 13.3345 21.8013 13.1165 21.4331 12.96C21.0649 12.7992 20.6714 12.7188 20.2524 12.7188C19.8335 12.7188 19.4378 12.797 19.0654 12.9536C18.6973 13.1102 18.3735 13.3281 18.0942 13.6074C17.8192 13.8867 17.6012 14.2104 17.4404 14.5786C17.2839 14.9468 17.2056 15.3403 17.2056 15.7593C17.2056 16.3221 17.341 16.8341 17.6118 17.2954C17.8869 17.7567 18.255 18.1227 18.7163 18.3936C19.1776 18.6644 19.6896 18.7998 20.2524 18.7998ZM14.5332 7.53906C14.5332 7.39941 14.5819 7.28304 14.6792 7.18994C14.7765 7.09261 14.8929 7.04395 15.0283 7.04395H16.8438C17.195 7.04395 17.4256 7.18571 17.5356 7.46924L20.6968 15.626L19.7764 15.9434L16.7549 8.07227C16.738 8.04264 16.7104 8.02783 16.6724 8.02783H15.0283C14.8929 8.02783 14.7765 7.98128 14.6792 7.88818C14.5819 7.79085 14.5332 7.67448 14.5332 7.53906ZM18.5005 11.3921L11.7656 12.3823V11.4683L18.5005 10.478V11.3921ZM13.2954 16.3369H7.81738V15.4229H13.2954V16.3369ZM13.9937 17.1113C13.744 17.1113 13.5176 17.0521 13.3145 16.9336C13.1113 16.8109 12.9505 16.6501 12.832 16.4512C12.7135 16.248 12.6564 16.0259 12.6606 15.7847C12.6606 15.5392 12.7199 15.3171 12.8384 15.1182C12.9611 14.915 13.1219 14.7542 13.3208 14.6357C13.5239 14.5173 13.7482 14.458 13.9937 14.458C14.2391 14.458 14.4613 14.5173 14.6602 14.6357C14.8633 14.7542 15.0241 14.915 15.1426 15.1182C15.2653 15.3171 15.3267 15.5392 15.3267 15.7847C15.3267 16.0301 15.2653 16.2523 15.1426 16.4512C15.0241 16.6501 14.8633 16.8109 14.6602 16.9336C14.4613 17.0521 14.2391 17.1113 13.9937 17.1113ZM14 16.2417C14.127 16.2417 14.2327 16.1973 14.3174 16.1084C14.4062 16.0195 14.4507 15.9137 14.4507 15.791C14.4507 15.6598 14.4062 15.5498 14.3174 15.4609C14.2327 15.3721 14.127 15.3276 14 15.3276C13.8688 15.3276 13.7588 15.3742 13.6699 15.4673C13.5811 15.5562 13.5366 15.6641 13.5366 15.791C13.5366 15.9137 13.5811 16.0195 13.6699 16.1084C13.7588 16.1973 13.8688 16.2417 14 16.2417ZM7.75391 16.5845C7.52116 16.5845 7.32438 16.5041 7.16357 16.3433C7.00277 16.1825 6.92448 15.9878 6.92871 15.7593C6.92871 15.5223 7.007 15.3255 7.16357 15.1689C7.32438 15.0081 7.52116 14.9277 7.75391 14.9277C7.98665 14.9277 8.18343 15.0081 8.34424 15.1689C8.50505 15.3298 8.58545 15.5265 8.58545 15.7593C8.58545 15.9878 8.50293 16.1825 8.33789 16.3433C8.17708 16.5041 7.98242 16.5845 7.75391 16.5845ZM20.2524 16.5908C20.0197 16.5908 19.8208 16.5104 19.6558 16.3496C19.495 16.1846 19.4167 15.9878 19.4209 15.7593C19.4251 15.5223 19.5076 15.3255 19.6685 15.1689C19.8293 15.0124 20.0239 14.9341 20.2524 14.9341C20.4852 14.9341 20.6799 15.0145 20.8364 15.1753C20.9972 15.3319 21.0776 15.5265 21.0776 15.7593C21.0776 15.9878 20.9972 16.1846 20.8364 16.3496C20.6756 16.5104 20.481 16.5908 20.2524 16.5908ZM13.7778 14.7881L17.396 10.9795L18.5449 11.0176L14.5967 15.2515L13.7778 14.7881ZM7.37939 15.4419L11.188 11.4873L11.9688 12.0459L8.19189 15.9053L7.37939 15.4419ZM13.1113 15.3784L10.1724 9.69092L11.1245 9.48779L13.9238 14.7944L13.1113 15.3784ZM8.98535 9.36084C8.98535 9.22542 9.03402 9.10905 9.13135 9.01172C9.22868 8.91439 9.34505 8.86572 9.48047 8.86572H11.9751C12.1105 8.86572 12.2269 8.91439 12.3242 9.01172C12.4215 9.10905 12.4702 9.22542 12.4702 9.36084C12.4702 9.49626 12.4215 9.61263 12.3242 9.70996C12.2311 9.80306 12.1147 9.84961 11.9751 9.84961H9.48047C9.34082 9.84961 9.22233 9.80306 9.125 9.70996C9.0319 9.61263 8.98535 9.49626 8.98535 9.36084Z" fill="white"/>
</svg>
