<svg width="3300" height="2200" viewBox="0 0 3300 2200" fill="none" xmlns="http://www.w3.org/2000/svg">
<g id="bikepass.fill" clip-path="url(#clip0_859_4231)">
<g id="Notes">
<path id="artboard" d="M3300 0H0V2200H3300V0Z" fill="white"/>
<path id="Vector" d="M263 292H3036" stroke="black" stroke-width="0.5"/>
<text id="Weight/Scale Variations" fill="black" xml:space="preserve" style="white-space: pre" font-family="Inter" font-size="13" font-weight="bold" letter-spacing="0em"><tspan x="263" y="321.727">Weight/Scale Variations</tspan></text>
<text id="Ultralight" fill="black" xml:space="preserve" style="white-space: pre" font-family="Inter" font-size="13" letter-spacing="0em"><tspan x="531.211" y="321.727">Ultralight</tspan></text>
<text id="Thin" fill="black" xml:space="preserve" style="white-space: pre" font-family="Inter" font-size="13" letter-spacing="0em"><tspan x="842.922" y="321.727">Thin</tspan></text>
<text id="Light" fill="black" xml:space="preserve" style="white-space: pre" font-family="Inter" font-size="13" letter-spacing="0em"><tspan x="1137.63" y="321.727">Light</tspan></text>
<text id="Regular" fill="black" xml:space="preserve" style="white-space: pre" font-family="Inter" font-size="13" letter-spacing="0em"><tspan x="1426.34" y="321.727">Regular</tspan></text>
<text id="Medium" fill="black" xml:space="preserve" style="white-space: pre" font-family="Inter" font-size="13" letter-spacing="0em"><tspan x="1721.56" y="321.727">Medium</tspan></text>
<text id="Semibold" fill="black" xml:space="preserve" style="white-space: pre" font-family="Inter" font-size="13" letter-spacing="0em"><tspan x="2014.27" y="321.727">Semibold</tspan></text>
<text id="Bold" fill="black" xml:space="preserve" style="white-space: pre" font-family="Inter" font-size="13" letter-spacing="0em"><tspan x="2325.98" y="321.727">Bold</tspan></text>
<text id="Heavy" fill="black" xml:space="preserve" style="white-space: pre" font-family="Inter" font-size="13" letter-spacing="0em"><tspan x="2617.19" y="321.727">Heavy</tspan></text>
<text id="Black" fill="black" xml:space="preserve" style="white-space: pre" font-family="Inter" font-size="13" letter-spacing="0em"><tspan x="2916.4" y="321.727">Black</tspan></text>
<path id="Vector_2" d="M263 1903H3036" stroke="black" stroke-width="0.5"/>
<g id="Group">
<path id="Vector_3" d="M272.248 1933.83C276.555 1933.83 280.139 1930.26 280.139 1925.95C280.139 1921.64 276.545 1918.07 272.238 1918.07C267.941 1918.07 264.367 1921.64 264.367 1925.95C264.367 1930.26 267.951 1933.83 272.248 1933.83ZM272.248 1932.35C268.703 1932.35 265.871 1929.5 265.871 1925.95C265.871 1922.39 268.693 1919.55 272.238 1919.55C275.793 1919.55 278.645 1922.39 278.645 1925.95C278.645 1929.5 275.803 1932.35 272.248 1932.35ZM268.654 1925.95C268.654 1926.38 268.957 1926.67 269.406 1926.67H271.506V1928.79C271.506 1929.23 271.799 1929.53 272.229 1929.53C272.678 1929.53 272.971 1929.23 272.971 1928.79V1926.67H275.09C275.529 1926.67 275.832 1926.38 275.832 1925.95C275.832 1925.51 275.529 1925.21 275.09 1925.21H272.971V1923.1C272.971 1922.65 272.678 1922.35 272.229 1922.35C271.799 1922.35 271.506 1922.65 271.506 1923.1V1925.21H269.406C268.957 1925.21 268.654 1925.51 268.654 1925.95Z" fill="black"/>
</g>
<g id="Group_2">
<path id="Vector_4" d="M293.215 1935.91C298.664 1935.91 303.176 1931.39 303.176 1925.95C303.176 1920.5 298.654 1915.99 293.205 1915.99C287.766 1915.99 283.254 1920.5 283.254 1925.95C283.254 1931.39 287.776 1935.91 293.215 1935.91ZM293.215 1934.25C288.606 1934.25 284.924 1930.56 284.924 1925.95C284.924 1921.34 288.596 1917.65 293.205 1917.65C297.815 1917.65 301.516 1921.34 301.516 1925.95C301.516 1930.56 297.824 1934.25 293.215 1934.25ZM288.684 1925.95C288.684 1926.43 289.016 1926.75 289.514 1926.75H292.385V1929.63C292.385 1930.12 292.717 1930.46 293.195 1930.46C293.684 1930.46 294.026 1930.13 294.026 1929.63V1926.75H296.906C297.395 1926.75 297.736 1926.43 297.736 1925.95C297.736 1925.46 297.395 1925.12 296.906 1925.12H294.026V1922.25C294.026 1921.75 293.684 1921.41 293.195 1921.41C292.717 1921.41 292.385 1921.75 292.385 1922.25V1925.12H289.514C289.016 1925.12 288.684 1925.46 288.684 1925.95Z" fill="black"/>
</g>
<g id="Group_3">
<path id="Vector_5" d="M319.895 1938.66C326.858 1938.66 332.619 1932.9 332.619 1925.95C332.619 1918.99 326.848 1913.22 319.885 1913.22C312.932 1913.22 307.18 1918.99 307.18 1925.95C307.18 1932.9 312.942 1938.66 319.895 1938.66ZM319.895 1936.85C313.86 1936.85 309.006 1931.98 309.006 1925.95C309.006 1919.9 313.85 1915.05 319.885 1915.05C325.93 1915.05 330.793 1919.9 330.793 1925.95C330.793 1931.98 325.94 1936.85 319.895 1936.85ZM314.123 1925.95C314.123 1926.47 314.494 1926.83 315.041 1926.83H318.986V1930.78C318.986 1931.32 319.358 1931.7 319.875 1931.7C320.412 1931.7 320.783 1931.33 320.783 1930.78V1926.83H324.738C325.276 1926.83 325.656 1926.47 325.656 1925.95C325.656 1925.4 325.285 1925.03 324.738 1925.03H320.783V1921.09C320.783 1920.54 320.412 1920.16 319.875 1920.16C319.358 1920.16 318.986 1920.54 318.986 1921.09V1925.03H315.041C314.494 1925.03 314.123 1925.4 314.123 1925.95Z" fill="black"/>
</g>
<text id="Design Variations" fill="black" xml:space="preserve" style="white-space: pre" font-family="Inter" font-size="13" font-weight="bold" letter-spacing="0em"><tspan x="263" y="1952.73">Design Variations</tspan></text>
<text id="Symbols are supported in up to nine weights and three scales." fill="black" xml:space="preserve" style="white-space: pre" font-family="Inter" font-size="13" letter-spacing="0em"><tspan x="263" y="1970.73">Symbols are supported in up to nine weights and three scales.</tspan></text>
<text id="For optimal layout with text and other symbols, vertically align" fill="black" xml:space="preserve" style="white-space: pre" font-family="Inter" font-size="13" letter-spacing="0em"><tspan x="263" y="1988.73">For optimal layout with text and other symbols, vertically align</tspan></text>
<text id="symbols with the adjacent text." fill="black" xml:space="preserve" style="white-space: pre" font-family="Inter" font-size="13" letter-spacing="0em"><tspan x="263" y="2006.73">symbols with the adjacent text.</tspan></text>
<path id="Vector_6" d="M776 1919V1933" stroke="#00AEEF" stroke-width="0.5"/>
<g id="Group_4">
<path id="Vector_7" d="M779.311 1933.16C779.828 1933.16 780.082 1932.96 780.268 1932.41L781.527 1928.97H787.289L788.549 1932.41C788.734 1932.96 788.988 1933.16 789.496 1933.16C790.014 1933.16 790.346 1932.84 790.346 1932.36C790.346 1932.19 790.316 1932.03 790.238 1931.83L785.658 1919.63C785.434 1919.04 785.033 1918.73 784.408 1918.73C783.803 1918.73 783.393 1919.03 783.178 1919.62L778.598 1931.84C778.52 1932.04 778.49 1932.2 778.49 1932.37C778.49 1932.85 778.803 1933.16 779.311 1933.16ZM782.006 1927.48L784.379 1920.91H784.428L786.801 1927.48H782.006Z" fill="black"/>
</g>
<path id="Vector_8" d="M792.836 1919V1933" stroke="#00AEEF" stroke-width="0.5"/>
<text id="Margins" fill="black" xml:space="preserve" style="white-space: pre" font-family="Inter" font-size="13" font-weight="bold" letter-spacing="0em"><tspan x="776" y="1952.73">Margins</tspan></text>
<text id="Leading and trailing margins on the left and right side of each symbol" fill="black" xml:space="preserve" style="white-space: pre" font-family="Inter" font-size="13" letter-spacing="0em"><tspan x="776" y="1970.73">Leading and trailing margins on the left and right side of each symbol</tspan></text>
<text id="can be adjusted by modifying the x-location of the margin guidelines." fill="black" xml:space="preserve" style="white-space: pre" font-family="Inter" font-size="13" letter-spacing="0em"><tspan x="776" y="1988.73">can be adjusted by modifying the x-location of the margin guidelines.</tspan></text>
<text id="Modifications are automatically applied proportionally to all" fill="black" xml:space="preserve" style="white-space: pre" font-family="Inter" font-size="13" letter-spacing="0em"><tspan x="776" y="2006.73">Modifications are automatically applied proportionally to all</tspan></text>
<text id="scales and weights." fill="black" xml:space="preserve" style="white-space: pre" font-family="Inter" font-size="13" letter-spacing="0em"><tspan x="776" y="2024.73">scales and weights.</tspan></text>
<g id="Group_5">
<path id="Vector_9" d="M1291.84 1934.87L1293.54 1936.57C1294.4 1937.44 1295.39 1937.38 1296.31 1936.36L1307.01 1924.57L1306.04 1923.6L1295.43 1935.28C1295.07 1935.68 1294.74 1935.77 1294.27 1935.3L1293.1 1934.14C1292.63 1933.68 1292.74 1933.34 1293.14 1932.98L1304.62 1922.18L1303.64 1921.21L1292.05 1932.1C1291.06 1933.02 1290.98 1934 1291.84 1934.87ZM1298.26 1916.67C1297.84 1917.08 1297.81 1917.66 1298.04 1918.05C1298.28 1918.41 1298.74 1918.64 1299.38 1918.48C1300.85 1918.14 1302.37 1918.08 1303.79 1919.02L1303.21 1920.47C1302.87 1921.3 1303.04 1921.89 1303.58 1922.43L1305.88 1924.75C1306.36 1925.24 1306.77 1925.26 1307.34 1925.16L1308.4 1924.96L1309.07 1925.64L1309.03 1926.19C1308.99 1926.69 1309.12 1927.07 1309.61 1927.55L1310.37 1928.29C1310.85 1928.77 1311.46 1928.8 1311.93 1928.33L1314.84 1925.41C1315.31 1924.94 1315.29 1924.35 1314.81 1923.87L1314.04 1923.11C1313.56 1922.63 1313.19 1922.47 1312.71 1922.51L1312.13 1922.56L1311.49 1921.93L1311.73 1920.8C1311.86 1920.24 1311.71 1919.8 1311.12 1919.21L1308.92 1917.02C1305.58 1913.7 1301.15 1913.78 1298.26 1916.67ZM1299.75 1917.04C1302.18 1915.27 1305.47 1915.57 1307.7 1917.79L1310.13 1920.21C1310.37 1920.44 1310.41 1920.63 1310.34 1920.97L1310.02 1922.45L1311.52 1923.94L1312.51 1923.88C1312.76 1923.87 1312.84 1923.89 1313.03 1924.08L1313.61 1924.66L1311.17 1927.1L1310.59 1926.53C1310.4 1926.33 1310.37 1926.25 1310.38 1925.99L1310.45 1925.01L1308.95 1923.53L1307.43 1923.78C1307.11 1923.85 1306.96 1923.82 1306.71 1923.59L1304.71 1921.58C1304.46 1921.35 1304.43 1921.18 1304.59 1920.81L1305.46 1918.72C1303.9 1917.27 1301.87 1916.64 1299.84 1917.24C1299.68 1917.28 1299.63 1917.15 1299.75 1917.04Z" fill="black"/>
</g>
<text id="Exporting" fill="black" xml:space="preserve" style="white-space: pre" font-family="Inter" font-size="13" font-weight="bold" letter-spacing="0em"><tspan x="1289" y="1952.73">Exporting</tspan></text>
<text id="Symbols should be outlined when exporting to ensure the" fill="black" xml:space="preserve" style="white-space: pre" font-family="Inter" font-size="13" letter-spacing="0em"><tspan x="1289" y="1970.73">Symbols should be outlined when exporting to ensure the</tspan></text>
<text id="design is preserved when submitting to Xcode." fill="black" xml:space="preserve" style="white-space: pre" font-family="Inter" font-size="13" letter-spacing="0em"><tspan x="1289" y="1988.73">design is preserved when submitting to Xcode.</tspan></text>
<text id="template-version" fill="black" xml:space="preserve" style="white-space: pre" font-family="Inter" font-size="13" letter-spacing="0em"><tspan x="2946" y="1932.73">Template v.5.0</tspan></text>
<text id="Requires Xcode 15 or greater" fill="black" xml:space="preserve" style="white-space: pre" font-family="Inter" font-size="13" letter-spacing="0em"><tspan x="2858" y="1950.73">Requires Xcode 15 or greater</tspan></text>
<text id="descriptive-name" fill="black" xml:space="preserve" style="white-space: pre" font-family="Inter" font-size="13" letter-spacing="0em"><tspan x="2849" y="1968.73">Generated from wallet.pass.fill</tspan></text>
<text id="Typeset at 100.0 points" fill="black" xml:space="preserve" style="white-space: pre" font-family="Inter" font-size="13" letter-spacing="0em"><tspan x="2892" y="1986.73">Typeset at 100.0 points</tspan></text>
<text id="Small" fill="black" xml:space="preserve" style="white-space: pre" font-family="Inter" font-size="13" letter-spacing="0em"><tspan x="263" y="725.727">Small</tspan></text>
<text id="Medium_2" fill="black" xml:space="preserve" style="white-space: pre" font-family="Inter" font-size="13" letter-spacing="0em"><tspan x="263" y="1155.73">Medium</tspan></text>
<text id="Large" fill="black" xml:space="preserve" style="white-space: pre" font-family="Inter" font-size="13" letter-spacing="0em"><tspan x="263" y="1585.73">Large</tspan></text>
</g>
<g id="Guides">
<g id="H-reference">
<path id="Vector_10" d="M339.994 696H342.638L368.328 628.868H369.03V625.541H367.123L339.994 696ZM350.688 671.52H385.981L385.231 669.272H351.438L350.688 671.52ZM394.12 696H396.764L369.638 625.541H368.433V628.868L394.12 696Z" fill="#27AAE1"/>
</g>
<path id="Baseline-S" d="M263 696H3036" stroke="#27AAE1" stroke-width="0.5"/>
<path id="Capline-S" d="M263 625.541H3036" stroke="#27AAE1" stroke-width="0.5"/>
<g id="H-reference_2">
<path id="Vector_11" d="M339.994 1126H342.638L368.328 1058.87H369.03V1055.54H367.123L339.994 1126ZM350.688 1101.52H385.981L385.231 1099.27H351.438L350.688 1101.52ZM394.12 1126H396.764L369.638 1055.54H368.433V1058.87L394.12 1126Z" fill="#27AAE1"/>
</g>
<path id="Baseline-M" d="M263 1126H3036" stroke="#27AAE1" stroke-width="0.5"/>
<path id="Capline-M" d="M263 1055.54H3036" stroke="#27AAE1" stroke-width="0.5"/>
<g id="H-reference_3">
<path id="Vector_12" d="M339.994 1556H342.638L368.328 1488.87H369.03V1485.54H367.123L339.994 1556ZM350.688 1531.52H385.981L385.231 1529.27H351.438L350.688 1531.52ZM394.12 1556H396.764L369.638 1485.54H368.433V1488.87L394.12 1556Z" fill="#27AAE1"/>
</g>
<path id="Baseline-L" d="M263 1556H3036" stroke="#27AAE1" stroke-width="0.5"/>
<path id="Capline-L" d="M263 1485.54H3036" stroke="#27AAE1" stroke-width="0.5"/>
<path id="left-margin-Ultralight-S" d="M519.288 600.785V720.121" stroke="#00AEEF" stroke-width="0.5"/>
<path id="right-margin-Ultralight-S" d="M600.134 600.785V720.121" stroke="#00AEEF" stroke-width="0.5"/>
<path id="left-margin-Regular-S" d="M1407.56 600.785V720.121" stroke="#00AEEF" stroke-width="0.5"/>
<path id="right-margin-Regular-S" d="M1492.13 600.785V720.121" stroke="#00AEEF" stroke-width="0.5"/>
<path id="left-margin-Black-S" d="M2887.7 600.785V720.121" stroke="#00AEEF" stroke-width="0.5"/>
<path id="right-margin-Black-S" d="M2979.1 600.785V720.121" stroke="#00AEEF" stroke-width="0.5"/>
</g>
<g id="Symbols">
<g id="Black-S">
<g id="Vector_13">
<path fill-rule="evenodd" clip-rule="evenodd" d="M2948.8 619H2917.2C2913.81 619 2911.38 619.002 2909.48 619.157C2907.6 619.31 2906.41 619.604 2905.46 620.09C2903.58 621.049 2902.05 622.578 2901.09 624.46C2900.6 625.415 2900.31 626.604 2900.16 628.481C2900 630.382 2900 632.807 2900 636.2V685.8C2900 689.193 2900 691.618 2900.16 693.519C2900.31 695.396 2900.6 696.585 2901.09 697.54C2902.05 699.422 2903.58 700.951 2905.46 701.91C2906.41 702.396 2907.6 702.69 2909.48 702.843C2911.38 702.998 2913.81 703 2917.2 703H2948.8C2952.19 703 2954.62 702.998 2956.52 702.843C2958.4 702.69 2959.59 702.396 2960.54 701.91C2962.42 700.951 2963.95 699.422 2964.91 697.54C2965.4 696.585 2965.69 695.396 2965.84 693.519C2966 691.618 2966 689.193 2966 685.8V636.2C2966 632.807 2966 630.382 2965.84 628.481C2965.69 626.604 2965.4 625.415 2964.91 624.46C2963.95 622.578 2962.42 621.049 2960.54 620.09C2959.59 619.604 2958.4 619.31 2956.52 619.157C2954.62 619.002 2952.19 619 2948.8 619ZM2899.31 623.552C2898 626.119 2898 629.479 2898 636.2V685.8C2898 692.521 2898 695.881 2899.31 698.448C2900.46 700.706 2902.29 702.542 2904.55 703.692C2907.12 705 2910.48 705 2917.2 705H2948.8C2955.52 705 2958.88 705 2961.45 703.692C2963.71 702.542 2965.54 700.706 2966.69 698.448C2968 695.881 2968 692.521 2968 685.8V636.2C2968 629.479 2968 626.119 2966.69 623.552C2965.54 621.294 2963.71 619.458 2961.45 618.308C2958.88 617 2955.52 617 2948.8 617H2917.2C2910.48 617 2907.12 617 2904.55 618.308C2902.29 619.458 2900.46 621.294 2899.31 623.552Z" fill="black"/>
<path d="M2952 650C2952 660.493 2943.49 669 2933 669C2922.51 669 2914 660.493 2914 650C2914 639.507 2922.51 631 2933 631C2943.49 631 2952 639.507 2952 650Z" fill="black"/>
<path fill-rule="evenodd" clip-rule="evenodd" d="M2933 667C2942.39 667 2950 659.389 2950 650C2950 640.611 2942.39 633 2933 633C2923.61 633 2916 640.611 2916 650C2916 659.389 2923.61 667 2933 667ZM2933 669C2943.49 669 2952 660.493 2952 650C2952 639.507 2943.49 631 2933 631C2922.51 631 2914 639.507 2914 650C2914 660.493 2922.51 669 2933 669Z" fill="black"/>
<path fill-rule="evenodd" clip-rule="evenodd" d="M2917 679C2915.9 679 2915 679.895 2915 681C2915 682.105 2915.9 683 2917 683H2949C2950.1 683 2951 682.105 2951 681C2951 679.895 2950.1 679 2949 679H2917Z" fill="black"/>
<path fill-rule="evenodd" clip-rule="evenodd" d="M2922 687C2920.9 687 2920 687.895 2920 689C2920 690.105 2920.9 691 2922 691H2944C2945.1 691 2946 690.105 2946 689C2946 687.895 2945.1 687 2944 687H2922Z" fill="black"/>
</g>
</g>
<g id="Regular-S">
<g id="Vector_14">
<path fill-rule="evenodd" clip-rule="evenodd" d="M1465.8 619H1434.2C1430.81 619 1428.38 619.002 1426.48 619.157C1424.6 619.31 1423.41 619.604 1422.46 620.09C1420.58 621.049 1419.05 622.578 1418.09 624.46C1417.6 625.415 1417.31 626.604 1417.16 628.481C1417 630.382 1417 632.807 1417 636.2V685.8C1417 689.193 1417 691.618 1417.16 693.519C1417.31 695.396 1417.6 696.585 1418.09 697.54C1419.05 699.422 1420.58 700.951 1422.46 701.91C1423.41 702.396 1424.6 702.69 1426.48 702.843C1428.38 702.998 1430.81 703 1434.2 703H1465.8C1469.19 703 1471.62 702.998 1473.52 702.843C1475.4 702.69 1476.59 702.396 1477.54 701.91C1479.42 700.951 1480.95 699.422 1481.91 697.54C1482.4 696.585 1482.69 695.396 1482.84 693.519C1483 691.618 1483 689.193 1483 685.8V636.2C1483 632.807 1483 630.382 1482.84 628.481C1482.69 626.604 1482.4 625.415 1481.91 624.46C1480.95 622.578 1479.42 621.049 1477.54 620.09C1476.59 619.604 1475.4 619.31 1473.52 619.157C1471.62 619.002 1469.19 619 1465.8 619ZM1416.31 623.552C1415 626.119 1415 629.479 1415 636.2V685.8C1415 692.521 1415 695.881 1416.31 698.448C1417.46 700.706 1419.29 702.542 1421.55 703.692C1424.12 705 1427.48 705 1434.2 705H1465.8C1472.52 705 1475.88 705 1478.45 703.692C1480.71 702.542 1482.54 700.706 1483.69 698.448C1485 695.881 1485 692.521 1485 685.8V636.2C1485 629.479 1485 626.119 1483.69 623.552C1482.54 621.294 1480.71 619.458 1478.45 618.308C1475.88 617 1472.52 617 1465.8 617H1434.2C1427.48 617 1424.12 617 1421.55 618.308C1419.29 619.458 1417.46 621.294 1416.31 623.552Z" fill="black"/>
<path d="M1469 650C1469 660.493 1460.49 669 1450 669C1439.51 669 1431 660.493 1431 650C1431 639.507 1439.51 631 1450 631C1460.49 631 1469 639.507 1469 650Z" fill="black"/>
<path fill-rule="evenodd" clip-rule="evenodd" d="M1450 667C1459.39 667 1467 659.389 1467 650C1467 640.611 1459.39 633 1450 633C1440.61 633 1433 640.611 1433 650C1433 659.389 1440.61 667 1450 667ZM1450 669C1460.49 669 1469 660.493 1469 650C1469 639.507 1460.49 631 1450 631C1439.51 631 1431 639.507 1431 650C1431 660.493 1439.51 669 1450 669Z" fill="black"/>
<path fill-rule="evenodd" clip-rule="evenodd" d="M1434 679C1432.9 679 1432 679.895 1432 681C1432 682.105 1432.9 683 1434 683H1466C1467.1 683 1468 682.105 1468 681C1468 679.895 1467.1 679 1466 679H1434Z" fill="black"/>
<path fill-rule="evenodd" clip-rule="evenodd" d="M1439 687C1437.9 687 1437 687.895 1437 689C1437 690.105 1437.9 691 1439 691H1461C1462.1 691 1463 690.105 1463 689C1463 687.895 1462.1 687 1461 687H1439Z" fill="black"/>
</g>
</g>
<g id="Ultralight-S">
<g id="Vector_15">
<path fill-rule="evenodd" clip-rule="evenodd" d="M577.8 621H546.2C542.807 621 540.382 621.002 538.481 621.157C536.604 621.31 535.415 621.604 534.46 622.09C532.578 623.049 531.049 624.578 530.09 626.46C529.604 627.415 529.31 628.604 529.157 630.481C529.002 632.382 529 634.807 529 638.2V687.8C529 691.193 529.002 693.618 529.157 695.519C529.31 697.396 529.604 698.585 530.09 699.54C531.049 701.422 532.578 702.951 534.46 703.91C535.415 704.396 536.604 704.69 538.481 704.843C540.382 704.998 542.807 705 546.2 705H577.8C581.193 705 583.618 704.998 585.519 704.843C587.396 704.69 588.585 704.396 589.54 703.91C591.422 702.951 592.951 701.422 593.91 699.54C594.396 698.585 594.69 697.396 594.843 695.519C594.998 693.618 595 691.193 595 687.8V638.2C595 634.807 594.998 632.382 594.843 630.481C594.69 628.604 594.396 627.415 593.91 626.46C592.951 624.578 591.422 623.049 589.54 622.09C588.585 621.604 587.396 621.31 585.519 621.157C583.618 621.002 581.193 621 577.8 621ZM528.308 625.552C527 628.119 527 631.479 527 638.2V687.8C527 694.521 527 697.881 528.308 700.448C529.458 702.706 531.294 704.542 533.552 705.692C536.119 707 539.479 707 546.2 707H577.8C584.521 707 587.881 707 590.448 705.692C592.706 704.542 594.542 702.706 595.692 700.448C597 697.881 597 694.521 597 687.8V638.2C597 631.479 597 628.119 595.692 625.552C594.542 623.294 592.706 621.458 590.448 620.308C587.881 619 584.521 619 577.8 619H546.2C539.479 619 536.119 619 533.552 620.308C531.294 621.458 529.458 623.294 528.308 625.552Z" fill="black"/>
<path d="M581 652C581 662.493 572.493 671 562 671C551.507 671 543 662.493 543 652C543 641.507 551.507 633 562 633C572.493 633 581 641.507 581 652Z" fill="black"/>
<path fill-rule="evenodd" clip-rule="evenodd" d="M562 669C571.389 669 579 661.389 579 652C579 642.611 571.389 635 562 635C552.611 635 545 642.611 545 652C545 661.389 552.611 669 562 669ZM562 671C572.493 671 581 662.493 581 652C581 641.507 572.493 633 562 633C551.507 633 543 641.507 543 652C543 662.493 551.507 671 562 671Z" fill="black"/>
<path fill-rule="evenodd" clip-rule="evenodd" d="M546 681C544.895 681 544 681.895 544 683C544 684.105 544.895 685 546 685H578C579.105 685 580 684.105 580 683C580 681.895 579.105 681 578 681H546Z" fill="black"/>
<path fill-rule="evenodd" clip-rule="evenodd" d="M551 689C549.895 689 549 689.895 549 691C549 692.105 549.895 693 551 693H573C574.105 693 575 692.105 575 691C575 689.895 574.105 689 573 689H551Z" fill="black"/>
</g>
</g>
</g>
</g>
<defs>
<clipPath id="clip0_859_4231">
<rect width="3300" height="2200" fill="white"/>
</clipPath>
</defs>
</svg>
