<svg width="28" height="28" viewBox="0 0 28 28" fill="none" xmlns="http://www.w3.org/2000/svg">
<path d="M13.9917 22.5898C12.8185 22.5898 11.7145 22.3657 10.6797 21.9175C9.64486 21.4748 8.73177 20.8577 7.94043 20.0664C7.15462 19.2751 6.5376 18.362 6.08936 17.3271C5.64111 16.2923 5.41699 15.1883 5.41699 14.0151C5.41699 12.842 5.64111 11.738 6.08936 10.7031C6.5376 9.66829 7.15462 8.75798 7.94043 7.97217C8.73177 7.18083 9.64209 6.56104 10.6714 6.11279C11.7062 5.66455 12.8102 5.44043 13.9834 5.44043C15.1621 5.44043 16.2689 5.66455 17.3037 6.11279C18.3385 6.56104 19.2516 7.18083 20.043 7.97217C20.8343 8.75798 21.4541 9.66829 21.9023 10.7031C22.3506 11.738 22.5747 12.842 22.5747 14.0151C22.5747 15.1883 22.3506 16.2923 21.9023 17.3271C21.4541 18.362 20.8343 19.2751 20.043 20.0664C19.2516 20.8577 18.3385 21.4748 17.3037 21.9175C16.2689 22.3657 15.1649 22.5898 13.9917 22.5898ZM10.165 14.4053C10.165 15.1191 10.3366 15.7694 10.6797 16.356C11.0228 16.9425 11.4821 17.4102 12.0576 17.7588C12.6387 18.1019 13.2834 18.2734 13.9917 18.2734C14.6945 18.2734 15.3337 18.1019 15.9092 17.7588C16.4902 17.4102 16.9523 16.9453 17.2954 16.3643C17.644 15.7832 17.8184 15.1413 17.8184 14.4385C17.8184 14.2559 17.752 14.1037 17.6191 13.9819C17.4919 13.8547 17.3397 13.791 17.1626 13.791C16.98 13.791 16.825 13.8547 16.6978 13.9819C16.5705 14.1037 16.5068 14.2559 16.5068 14.4385C16.5068 14.9089 16.3934 15.335 16.1665 15.7168C15.9451 16.0931 15.6436 16.3947 15.2617 16.6216C14.8799 16.8485 14.4565 16.9619 13.9917 16.9619C13.5269 16.9619 13.1035 16.8485 12.7217 16.6216C12.3398 16.3947 12.0355 16.0903 11.8086 15.7085C11.5872 15.3267 11.4766 14.9033 11.4766 14.4385C11.4766 13.9902 11.5789 13.5835 11.7837 13.2183C11.994 12.8475 12.2762 12.5514 12.6304 12.3301C12.9845 12.1032 13.3774 11.9842 13.8091 11.9731C13.9198 11.9676 14.0138 11.9648 14.0913 11.9648L13.4023 12.6621C13.3027 12.7673 13.2529 12.8973 13.2529 13.0522C13.2529 13.2293 13.311 13.3732 13.4272 13.4839C13.5435 13.5946 13.6873 13.6499 13.8589 13.6499C14.0194 13.6499 14.1605 13.589 14.2822 13.4673L15.9009 11.8403C16.0226 11.7297 16.0807 11.5858 16.0752 11.4087C16.0752 11.2316 16.0171 11.085 15.9009 10.9688L14.2988 9.3335C14.2435 9.27816 14.1771 9.23112 14.0996 9.19238C14.0221 9.15365 13.9391 9.13428 13.8506 9.13428C13.6735 9.13428 13.5296 9.19515 13.4189 9.31689C13.3083 9.43311 13.2529 9.56868 13.2529 9.72363C13.2529 9.81217 13.2668 9.89242 13.2944 9.96436C13.3276 10.0308 13.3664 10.0916 13.4106 10.147L13.917 10.6699C13.8893 10.6644 13.8561 10.6616 13.8174 10.6616C13.7786 10.6561 13.7399 10.6561 13.7012 10.6616C13.0758 10.6782 12.492 10.8553 11.9497 11.1929C11.4129 11.5304 10.9813 11.9814 10.6548 12.5459C10.3283 13.1048 10.165 13.7246 10.165 14.4053Z" fill="white"/>
</svg>
