<svg width="28" height="28" viewBox="0 0 28 28" fill="none" xmlns="http://www.w3.org/2000/svg">
<path d="M15.0459 21.0566C15.292 21.0566 15.5039 20.9587 15.6816 20.7627C15.8594 20.5667 16.012 20.3047 16.1396 19.9766L20.6172 8.28027C20.6764 8.12077 20.722 7.97266 20.7539 7.83594C20.7904 7.69922 20.8086 7.57161 20.8086 7.45312C20.8086 7.22982 20.7448 7.05436 20.6172 6.92676C20.4896 6.79915 20.3141 6.73535 20.0908 6.73535C19.9769 6.73535 19.8493 6.75358 19.708 6.79004C19.5713 6.82194 19.4232 6.86751 19.2637 6.92676L7.50586 11.4316C7.21875 11.541 6.97721 11.6846 6.78125 11.8623C6.58529 12.04 6.4873 12.252 6.4873 12.498C6.4873 12.8125 6.5944 13.0404 6.80859 13.1816C7.02279 13.3184 7.29395 13.4368 7.62207 13.5371L11.3135 14.6582C11.5322 14.7266 11.7122 14.7539 11.8535 14.7402C11.9948 14.722 12.1406 14.6445 12.291 14.5078L19.79 7.50098C19.8311 7.45996 19.8743 7.44173 19.9199 7.44629C19.9701 7.44629 20.0133 7.46224 20.0498 7.49414C20.0863 7.52604 20.1045 7.56706 20.1045 7.61719C20.1045 7.66732 20.084 7.71289 20.043 7.75391L13.0635 15.2803C12.9313 15.4215 12.8561 15.5628 12.8379 15.7041C12.8197 15.8408 12.8424 16.0231 12.9062 16.251L13.9932 19.8604C14.0934 20.2021 14.2142 20.487 14.3555 20.7148C14.4967 20.9427 14.7269 21.0566 15.0459 21.0566Z" fill="white"/>
</svg>
