<svg width="28" height="28" viewBox="0 0 28 28" fill="none" xmlns="http://www.w3.org/2000/svg">
<path d="M14 21.8281C15.0885 21.8281 16.112 21.6198 17.0703 21.2031C18.0339 20.7865 18.8828 20.2109 19.6172 19.4766C20.3516 18.7422 20.9271 17.8958 21.3438 16.9375C21.7604 15.974 21.9688 14.9479 21.9688 13.8594C21.9688 12.7708 21.7604 11.7474 21.3438 10.7891C20.9271 9.82552 20.3516 8.97656 19.6172 8.24219C18.8828 7.50781 18.0339 6.93229 17.0703 6.51562C16.1068 6.09896 15.0807 5.89062 13.9922 5.89062C12.9036 5.89062 11.8776 6.09896 10.9141 6.51562C9.95573 6.93229 9.10938 7.50781 8.375 8.24219C7.64583 8.97656 7.07292 9.82552 6.65625 10.7891C6.23958 11.7474 6.03125 12.7708 6.03125 13.8594C6.03125 14.9479 6.23958 15.974 6.65625 16.9375C7.07292 17.8958 7.64844 18.7422 8.38281 19.4766C9.11719 20.2109 9.96354 20.7865 10.9219 21.2031C11.8854 21.6198 12.9115 21.8281 14 21.8281ZM13.8438 15.5312C13.4115 15.5312 13.1953 15.3177 13.1953 14.8906C13.1953 14.875 13.1953 14.8594 13.1953 14.8438C13.1953 14.8229 13.1953 14.8047 13.1953 14.7891C13.1953 14.388 13.2917 14.0677 13.4844 13.8281C13.6771 13.5885 13.9167 13.3672 14.2031 13.1641C14.5573 12.9193 14.8203 12.7109 14.9922 12.5391C15.1641 12.362 15.25 12.1354 15.25 11.8594C15.25 11.5521 15.138 11.3047 14.9141 11.1172C14.6953 10.9297 14.4036 10.8359 14.0391 10.8359C13.862 10.8359 13.6979 10.8646 13.5469 10.9219C13.3958 10.9792 13.2578 11.0625 13.1328 11.1719C13.0078 11.2812 12.8958 11.4141 12.7969 11.5703L12.6562 11.7656C12.5833 11.8594 12.5 11.9375 12.4062 12C12.3125 12.0573 12.1979 12.0859 12.0625 12.0859C11.9271 12.0859 11.7995 12.0391 11.6797 11.9453C11.5599 11.8464 11.5 11.7083 11.5 11.5312C11.5 11.4635 11.5052 11.3958 11.5156 11.3281C11.5312 11.2604 11.5495 11.1953 11.5703 11.1328C11.6849 10.7578 11.9583 10.4323 12.3906 10.1562C12.8281 9.88021 13.3958 9.74219 14.0938 9.74219C14.5521 9.74219 14.974 9.82031 15.3594 9.97656C15.75 10.1328 16.0651 10.3646 16.3047 10.6719C16.5443 10.974 16.6641 11.349 16.6641 11.7969C16.6641 12.2812 16.5365 12.6641 16.2812 12.9453C16.0312 13.2266 15.7109 13.4948 15.3203 13.75C15.0391 13.9323 14.8307 14.1068 14.6953 14.2734C14.5599 14.4349 14.4922 14.6302 14.4922 14.8594C14.4922 14.8698 14.4922 14.8854 14.4922 14.9062C14.4922 14.9219 14.4922 14.9375 14.4922 14.9531C14.4922 15.1146 14.4349 15.2526 14.3203 15.3672C14.2057 15.4766 14.0469 15.5312 13.8438 15.5312ZM13.8203 17.9297C13.5911 17.9297 13.388 17.849 13.2109 17.6875C13.0391 17.526 12.9531 17.3281 12.9531 17.0938C12.9531 16.8646 13.0391 16.6667 13.2109 16.5C13.3828 16.3333 13.5859 16.25 13.8203 16.25C14.0599 16.25 14.2656 16.3333 14.4375 16.5C14.6094 16.6615 14.6953 16.8594 14.6953 17.0938C14.6953 17.3281 14.6068 17.526 14.4297 17.6875C14.2578 17.849 14.0547 17.9297 13.8203 17.9297Z" fill="white"/>
</svg>
