<?xml version="1.0" encoding="utf-8"?>
<!-- Generator: Adobe Illustrator 21.0.2, SVG Export Plug-In . SVG Version: 6.00 Build 0)  -->
<!DOCTYPE svg PUBLIC "-//W3C//DTD SVG 1.1//EN" "http://www.w3.org/Graphics/SVG/1.1/DTD/svg11.dtd">
<svg version="1.1" id="Layer_1" xmlns="http://www.w3.org/2000/svg" xmlns:xlink="http://www.w3.org/1999/xlink" x="0px" y="0px"
	 viewBox="0 0 796.6771 294.4656" style="enable-background:new 0 0 796.6771 294.4656;" xml:space="preserve">
<style type="text/css">
	.st0{fill:#010101;}
	.st1{fill:#A51E22;}
</style>
<g>
	<path class="st0" d="M65.0087,222.5612c10.3259,2.6997,16.0449,9.1961,17.813,19.2288c0.3988,2.2628,0.5829,4.5867,0.6172,6.8861
		c0.0855,5.7444,0.1708,11.4954-0.008,17.2356c-0.2222,7.1324-2.2892,13.6191-7.65,18.6817
		c-4.0888,3.8614-9.0316,6.1422-14.5057,7.0584c-3.6857,0.6169-7.4626,0.925-11.2013,0.9481
		c-16.0976,0.0994-32.1962,0.0425-48.2945,0.0425c-0.561,0-1.1219,0-1.7794,0c0-44.7345,0.0001-89.3685,0.0001-134.1962
		c0.6048,0,1.1558,0,1.7067,0c16.0465,0,32.093-0.0032,48.1395,0.0016c6.3022,0.0019,12.459,0.7649,18.0427,3.9607
		c5.9299,3.394,9.3763,8.6386,10.5529,15.2739c0.5349,3.0164,0.5891,6.1369,0.6496,9.2144
		c0.0996,5.0708,0.0478,10.1452,0.0225,15.2178c-0.0461,9.2307-4.2139,15.8339-12.635,19.7031
		C66.0857,221.9983,65.7057,222.2076,65.0087,222.5612z M12.3955,281.5658c0.6743,0,1.2345,0,1.7946,0
		c12.3653,0,24.7307,0.0145,37.096-0.014c2.1093-0.0049,4.2371-0.0517,6.323-0.3296c3.3957-0.4525,6.5211-1.6525,9.0648-4.0674
		c3.2354-3.0715,4.3589-7.0769,4.4181-11.2942c0.0987-7.0215,0.038-14.0575-0.3186-21.069
		c-0.251-4.9365-2.5817-8.9714-6.7939-11.7915c-4.4441-2.9753-9.5096-3.6339-14.6343-3.6859
		c-11.8467-0.1202-23.6955-0.0382-35.5435-0.0382c-0.4495,0-0.8991,0-1.4062,0C12.3956,246.7367,12.3956,264.0503,12.3955,281.5658z
		 M12.4134,169.3265c0,16.5045,0,32.7883,0,49.1835c0.6316,0,1.1906,0,1.7497,0c10.6109,0,21.2224,0.0627,31.8323-0.0428
		c2.7525-0.0274,5.5719-0.2888,8.236-0.9469c8.38-2.0701,12.19-7.7616,12.5053-15.1762c0.2944-6.9234,0.1637-13.8713,0.019-20.8043
		c-0.0688-3.2968-1.259-6.2693-3.8518-8.5435c-3.3475-2.936-7.4662-3.5833-11.6274-3.6249
		c-12.473-0.1248-24.9481-0.0449-37.4224-0.045C13.3995,169.3265,12.9451,169.3265,12.4134,169.3265z"/>
	<path class="st1" d="M407.8074,149.5807c-2.5139,3.4001-4.8555,6.575-7.2051,9.744
		c-8.2591,11.1388-16.5142,22.2806-24.7836,33.4118c-7.5938,10.2218-15.2216,20.4183-22.8028,30.6493
		c-10.8513,14.644-21.6713,29.3112-32.5102,43.9644c-5.8929,7.9667-11.7885,15.9313-17.7211,23.8684
		c-0.313,0.4187-0.9795,0.8035-1.4868,0.8105c-4.5522,0.0623-9.1057,0.0364-14.0253,0.0364
		c1.3774-1.8663,2.5893-3.5417,3.8354-5.1912c5.9786-7.9146,11.8128-15.946,18.0359-23.6637
		c2.1247-2.6351,2.3453-4.8527,1.5127-7.9528c-4.9997-18.617-9.7939-37.2891-14.6689-55.9397
		c-4.2089-16.1023-8.4348-32.2001-12.6455-48.3019c-0.1155-0.4418-0.1436-0.9064-0.2239-1.4355
		C324.5932,149.5806,366.0334,149.5806,407.8074,149.5807z M320.4946,247.9979c21.6018-29.0905,43.0097-57.9199,64.5612-86.9428
		c-29.2561,0-58.2036,0-87.2659-0.0001C305.3399,189.9659,312.871,218.8048,320.4946,247.9979z"/>
	<path class="st0" d="M633.0463,281.4192c21.1999,0,42.3027,0,63.4928,0.0001c-0.0001,3.7732-0.0001,7.4214-0.0001,11.1469
		c-25.2498,0-50.4877,0-75.8167-0.0001c0.0001-44.6382,0.0001-89.2825,0.0001-134.0231c25.1434,0,50.2753,0,75.5005,0
		c0,3.629,0,7.278,0,11.0625c-21.0314,0-42.0704,0-63.1909,0c-0.0001,16.3162-0.0001,32.498-0.0001,48.8149
		c19.5482,0,39.1377,0,58.8313,0c0,3.7758,0,7.4191,0,11.2522c-19.5599,0-39.1408,0-58.8169,0
		C633.0463,246.9709,633.0463,264.0809,633.0463,281.4192z"/>
	<path class="st1" d="M501.636,172.7617c-2.6961,2.6945-5.3257,5.3226-8.0651,8.0604
		c-12.8845-12.0677-28.3386-17.6875-46.0242-16.2964c-15.2924,1.2029-28.3627,7.6392-38.6919,19.0176
		c-22.4832,24.7668-19.327,59.6686,0.5808,80.8609c20.7123,22.0488,58.8273,26.5239,84.7221,1.5739
		c2.6257,2.6188,5.2507,5.2368,7.8834,7.8627c-20.522,21.9856-61.1035,29.6214-91.9664,6.2987
		c-33.8203-25.5576-36.926-72.3372-11.6268-102.0967C426.326,145.2497,473.7568,145.5776,501.636,172.7617z"/>
	<path class="st1" d="M266.5253,265.9411c2.6253,2.6233,5.2498,5.2459,7.8807,7.8748
		c-15.0685,16.1937-42.4679,25.4732-69.0807,17.7603c-29.9418-8.6777-47.7681-34.1279-50.64-59.4145
		c-1.914-16.853,1.5607-32.5631,10.7812-46.8833c8.2821-12.8629,19.6045-22.1723,33.8429-27.6324
		c27.7994-10.6604,56.813-2.6034,74.515,15.0442c-2.6574,2.6536-5.3158,5.3083-7.9804,7.9692
		c-25.4744-23.8095-62.3995-20.3076-83.5354,1.6897c-21.878,22.7695-21.7233,56.8127-2.788,79.5059
		C199.9083,286.2888,239.9794,291.7153,266.5253,265.9411z"/>
	<path class="st0" d="M795.0627,161.1329c-0.4221,3.1412-0.8397,6.0809-1.2012,9.0275c-0.1306,1.0638-0.3705,1.4439-1.6527,1.2014
		c-5.2188-0.9869-10.4524-1.9534-15.7202-2.6085c-5.0464-0.6276-10.1423-1.1917-15.2159-1.188
		c-7.3575,0.0053-14.7922-0.0274-21.7744,2.9804c-4.9169,2.1181-7.267,6.118-8.0618,11.1563
		c-1.0272,6.5124-0.697,13.0714-0.3077,19.6105c0.3702,6.2197,3.1863,10.8898,9.311,12.8975
		c6.1106,2.0031,12.2849,3.8345,18.4939,5.5089c7.9882,2.1543,16.0359,4.0954,23.6098,7.5245
		c6.6951,3.0312,11.6625,7.6184,12.9822,15.2054c0.5438,3.1255,0.999,6.3035,1.0651,9.4666
		c0.1047,5.0049,0.2151,10.0574-0.3276,15.0187c-1.3804,12.6164-6.3461,21.2943-20.9716,25.3815
		c-5.4152,1.5134-10.9866,2.1644-16.5897,2.1497c-5.4658-0.0143-10.957-0.1071-16.39-0.6423
		c-8.1225-0.8001-16.099-2.4833-23.8215-5.2262c-1.0171-0.3613-1.4458-0.7143-1.0732-1.9775
		c0.7177-2.4334,1.1649-4.9491,1.6678-7.442c0.2025-1.004,0.6118-1.1103,1.5909-0.8898c6.4502,1.4522,12.8669,3.223,19.4007,4.0861
		c6.4164,0.8476,12.9591,0.9844,19.4456,0.9743c4.6824-0.0073,9.3736-0.6638,13.8317-2.3919
		c6.017-2.3325,9.2802-6.8496,10.3304-13.0433c1.1033-6.5063,0.7964-13.0665,0.3055-19.6022
		c-0.4789-6.3753-4.0702-10.5579-9.9956-12.4535c-6.6054-2.1131-13.3293-3.872-20.0431-5.6266
		c-7.8555-2.0529-15.8033-3.7672-23.0579-7.6458c-6.2773-3.356-9.9047-8.5705-11.1717-15.4995
		c-1.164-6.3647-1.4053-12.8071-1.1993-19.2439c0.1583-4.9504,0.7094-9.8916,2.5831-14.5691
		c3.0206-7.5404,8.8907-11.7673,16.3889-14.0835c5.6624-1.7491,11.4974-2.5128,17.393-2.5661
		c5.3011-0.0479,10.6105,0.133,15.9067,0.4019c7.7308,0.3925,15.3242,1.7415,22.8083,3.7078
		C794.0858,160.8593,794.5666,160.9966,795.0627,161.1329z"/>
	<path class="st0" d="M526.8862,292.5649c0.0001-44.7475,0.0001-89.3513,0.0001-134.0367c4.0714,0,8.0816,0,12.2358,0
		c-0.0001,40.9395-0.0001,81.8541-0.0001,122.9044c20.0467,0,39.9506,0,59.9695,0c0,3.7736,0,7.4135,0,11.1324
		C575.0469,292.565,551.0062,292.5649,526.8862,292.5649z"/>
	<path class="st0" d="M113.1902,158.5004c4.1014,0,8.0748,0,12.1293,0c0,44.6884-0.0001,89.3222-0.0001,134.0493
		c-3.9949,0-8.0073,0-12.1293,0C113.1901,247.9401,113.1902,203.2718,113.1902,158.5004z"/>
	<path class="st1" d="M292.0955,140.485c-3.7652,0-7.2806,0.0233-10.7947-0.0337c-0.3793-0.0061-1.0034-0.4127-1.0894-0.7439
		c-2.3669-9.1065-4.6786-18.2272-7.0564-27.5693c-10.4395,1.2041-20.8834,2.4088-31.5958,3.6444
		c-0.3539-6.4286-0.6991-12.6999-1.0512-19.0972c2.5368,0.1185,5.1026,0.2017,7.6629,0.3699
		c1.9394,0.1274,3.8683,0.4165,5.8079,0.5394c4.0003,0.2533,8.0076,0.4001,12.0065,0.6706
		c5.2174,0.3529,10.4291,0.7888,15.6441,1.1774c1.7937,0.1337,3.5893,0.2454,5.3853,0.3447
		c4.008,0.2215,8.0194,0.3884,12.0245,0.6525c4.7151,0.3109,9.425,0.701,14.1346,1.0566c0,1.934,0,3.9413,0,5.9993
		c-9.6264,1.1139-19.0644,2.2059-28.7712,3.3291C286.9599,120.6844,289.5096,130.5148,292.0955,140.485z"/>
	<path class="st1" d="M407.7903,105.5741c-0.1929-0.2542-0.3704-0.4476-0.5022-0.6682c-0.8873-1.4853-2.0598-2.0932-3.9113-2.0628
		c-7.6568,0.1255-15.317,0.0526-23.0907,0.0526c0-3.7744,0-7.5206,0-11.4703c0.4865,0,1.0323,0,1.5781,0
		c9.1608,0,18.3217,0.0209,27.4822-0.0277c1.0867-0.0058,1.831,0.287,2.5156,1.112c3.2911,3.9657,6.6405,7.8833,9.9037,11.8716
		c0.2487,0.3039,0.1883,1.1666-0.0682,1.5295c-1.9557,2.7666-3.966,5.4962-6.0291,8.1838
		c-0.5585,0.7276-0.6651,1.3521-0.3869,2.2045c1.6166,4.9524,3.1915,9.9184,4.7731,14.8821
		c0.1377,0.4321,0.2221,0.8812,0.3647,1.4576c-3.5653,1.1338-7.1162,2.263-10.7787,3.4276
		c-1.6793-5.2729-3.3053-10.3716-4.9265-15.4718c-0.675-2.1236-1.2758-4.2737-2.0373-6.3655
		c-0.3518-0.9663-0.1363-1.6509,0.4303-2.3951C404.6642,109.7896,406.1884,107.7203,407.7903,105.5741z"/>
	<path class="st0" d="M758.3386,0.8072c2.6915,0,5.322,0,8.0976,0c6.6585,13.0558,13.3544,26.1852,20.0505,39.3146
		c0.082-0.0068,0.1639-0.0136,0.2459-0.0204c0-13.0696,0.0001-26.1393,0.0001-39.2634c1.9843,0,3.7673,0,5.6154,0
		c0,15.3754,0,30.6771,0,46.211c-2.5449,0-5.0588,0.0391-7.5685-0.0447c-0.3523-0.0118-0.8011-0.5652-1.0089-0.9689
		c-5.3928-10.4798-10.7588-20.9732-16.1313-31.4634c-1.1351-2.2164-2.277-4.4292-3.7523-6.5845
		c-0.0001,12.9653-0.0001,25.9307-0.0001,38.983c-1.9589,0-3.7,0-5.5484,0C758.3386,31.6508,758.3386,16.3062,758.3386,0.8072z"/>
	<path class="st0" d="M360.1924,0.8393c1.9335,0,3.7162,0,5.5616,0c0,15.3892,0,30.7299,0,46.219
		c-2.5333,0-5.0035,0.0432-7.4691-0.0435c-0.4007-0.0141-0.9347-0.5243-1.1485-0.9386
		c-5.9908-11.6092-11.9481-23.2357-17.9117-34.8589c-0.5673-1.1057-1.14-2.2085-1.9537-3.2692c0,12.9875,0,25.975,0,39.0363
		c-1.898,0-3.636,0-5.5029,0c0-15.3537,0-30.6912,0.0001-46.2182c2.4565,0,4.9756-0.0302,7.492,0.0397
		c0.302,0.0084,0.6859,0.5105,0.8687,0.8673c5.464,10.662,10.9078,21.3343,16.3534,32.0057c0.964,1.889,1.9161,3.784,2.8892,5.6682
		c0.1452,0.2813,0.3759,0.5184,0.821,1.1179C360.1923,27.0022,360.1923,13.958,360.1924,0.8393z"/>
	<path class="st0" d="M114.8516,24.8326c0,3.3078,0.0853,6.6184-0.0185,9.923c-0.1912,6.0884-3.2602,10.1222-9.0689,11.9128
		c-5.9161,1.8237-11.8149,1.7317-17.4692-0.9795c-3.9324-1.8856-6.3474-5.1564-6.5296-9.5017
		c-0.3201-7.6319-0.5611-15.2903-0.2816-22.9174c0.257-7.0115,4.0918-11.5638,12.0773-12.803
		c4.7737-0.7408,9.5447-0.7022,14.0365,1.3675c5.3429,2.4619,7.3873,6.946,7.3624,12.6005
		c-0.0153,3.4658-0.0028,6.9317-0.0028,10.3976C114.922,24.8325,114.8868,24.8326,114.8516,24.8326z M87.197,23.8545
		c0,3.3637-0.0622,6.7288,0.0156,10.0906c0.0991,4.2821,2.3105,7.3078,6.2821,8.1008c2.1444,0.4282,4.4014,0.7828,6.5538,0.585
		c5.3928-0.4957,9.0451-2.5611,9.1636-9.0837c0.1166-6.4147,0.0832-12.8339,0.007-19.2498
		c-0.0592-4.9864-2.0747-7.6206-6.9587-8.6856c-2.203-0.4804-4.5755-0.3675-6.8586-0.259c-4.9662,0.236-8.1941,3.7494-8.2036,8.7213
		C87.1919,17.3341,87.197,20.5943,87.197,23.8545z"/>
	<path class="st0" d="M426.5481,46.9912c-2.0035,0-3.7482,0-5.6263,0c0-15.3548,0-30.6943,0.0001-46.1298
		c1.7687,0,3.6008,0,5.5439,0c0,6.5933,0,13.1488,0,19.8418c6.9517,0,13.796,0,20.7713,0c0-6.5538,0-13.1501,0-19.8415
		c1.9661,0,3.8052,0,5.7558,0c0,15.3171,0,30.6978-0.0001,46.1188c-1.8844,0-3.7206,0-5.6548,0c0-6.9972,0-13.9187,0-20.9423
		c-6.9456,0-13.7927,0-20.79,0C426.5481,32.9968,426.5481,39.9067,426.5481,46.9912z"/>
	<path class="st0" d="M543.6041,47.0612c-1.8654,0-3.5131,0.0629-5.1492-0.047c-0.3795-0.0255-0.8953-0.5755-1.0494-0.9941
		c-1.0862-2.951-2.1437-5.915-3.0991-8.9104c-0.3107-0.9743-0.7718-1.2581-1.7535-1.251
		c-5.7438,0.0415-11.4884,0.0544-17.2318-0.0095c-1.0955-0.0122-1.5377,0.3813-1.847,1.3555
		c-0.9221,2.9041-1.9651,5.7701-2.8715,8.6789c-0.2719,0.8728-0.611,1.2583-1.5749,1.201c-1.4825-0.088-2.974-0.0232-4.7084-0.0232
		c1.1048-3.2501,2.1516-6.3057,3.1824-9.3666c3.9621-11.7656,7.9401-23.5259,11.8476-35.3096
		c0.4266-1.2868,0.9675-1.7888,2.3605-1.6598c1.6932,0.1569,3.4134,0.0788,5.1191,0.0197c0.8488-0.0294,1.1994,0.2237,1.4863,1.0811
		c4.7172,14.0958,9.4869,28.174,14.247,42.2554C542.8693,44.9895,543.1945,45.8913,543.6041,47.0612z M532.3848,30.8208
		c-2.783-8.6304-5.5302-17.15-8.2775-25.6697c-0.122,0.0319-0.2441,0.0639-0.3661,0.0958
		c-2.731,8.4821-5.4619,16.9643-8.2339,25.5739C521.1878,30.8208,526.6564,30.8208,532.3848,30.8208z"/>
	<path class="st0" d="M169.0694,0.7624c6.3956,0,12.6604-0.1407,18.9145,0.0581c3.232,0.1027,6.4062,0.9097,8.7243,3.53
		c1.5631,1.7669,2.2433,3.8981,2.2943,6.2c0.0723,3.259,0.1015,6.5235,0.0008,9.781c-0.2051,6.6309-4.3251,9.4196-9.1802,9.7642
		c-4.9226,0.3494-9.8893,0.0771-14.9998,0.0771c0,5.8326,0,11.2854,0,16.8117c-1.9997,0-3.8365,0-5.754,0
		C169.0694,31.601,169.0694,16.256,169.0694,0.7624z M174.8632,6.2552c0,6.2383,0,12.5792,0,19.036
		c4.3484,0,8.6359,0.1698,12.9035-0.0497c3.94-0.2026,5.4509-2.0669,5.4509-5.9725c0-2.7412,0.0093-5.4824-0.0027-8.2235
		c-0.0112-2.5445-1.3962-4.5873-3.9079-4.7183C184.5376,6.0785,179.746,6.2552,174.8632,6.2552z"/>
	<path class="st0" d="M256.8495,5.8892c0,5.002,0,9.792,0,14.7137c6.5803,0,13.1221,0,19.7438,0c0,1.7605,0,3.3925,0,5.1573
		c-6.5171,0-13.0589,0-19.6992,0c0,5.4286,0,10.7271,0,16.1728c7.0549,0,14.1162,0,21.2546,0c0,1.7281,0,3.3108,0,5.0109
		c-9.0033,0-18.0114,0-27.0877,0c0-15.3716,0-30.7105,0-46.1127c8.9775,0,17.9001,0,26.8964,0c0,1.6967,0,3.3259,0,5.058
		C270.9471,5.8892,263.9803,5.8892,256.8495,5.8892z"/>
	<path class="st0" d="M704.7517,41.9197c0,1.797,0,3.3348,0,5.0057c-8.9774,0-17.9386,0-26.991,0c0-15.3353,0-30.6364,0-46.0486
		c8.8941,0,17.8179,0,26.8424,0c0,1.5698,0,3.2021,0,5.0173c-6.9719,0-14.0229,0-21.145,0c0,4.9722,0,9.7631,0,14.7145
		c6.5641,0,13.1039,0,19.7242,0c0,1.788,0,3.4173,0,5.1717c-6.5254,0-13.0284,0-19.6639,0c0,5.4109,0,10.6995,0,16.1394
		C690.5497,41.9197,697.5635,41.9197,704.7517,41.9197z"/>
	<path class="st0" d="M622.1645,1.4918c-0.2157,1.5991-0.4246,3.1478-0.6517,4.8321c-2.5416-0.2975-4.9165-0.6766-7.306-0.8314
		c-3.5862-0.2322-7.2138-0.6302-10.729,0.4701c-2.8745,0.8998-4.3356,2.9611-4.374,6.0001
		c-0.0912,7.2352-0.1539,14.4709-0.1899,21.7066c-0.0058,1.1744,0.0931,2.3661,0.3011,3.5215
		c0.5537,3.0764,2.6365,4.6383,5.5568,5.0808c4.249,0.644,8.4728,0.2566,12.7316-0.55c0-5.2766,0-10.4395,0-15.6999
		c1.9119,0,3.7516,0,5.7269,0c0.0263,0.3056,0.0886,0.695,0.089,1.0846c0.0062,5.7948-0.0132,11.5897,0.0216,17.3844
		c0.0057,0.9644-0.1752,1.3764-1.2672,1.6231c-6.8006,1.5362-13.606,2.5577-20.5217,0.8265
		c-5.7305-1.4344-8.0568-5.4279-8.1902-10.1847c-0.2392-8.5245-0.3395-17.0722,0.0242-25.588
		c0.2613-6.1182,3.4777-9.5477,10.1436-10.653C609.7039-0.5091,615.8933,0.0863,622.1645,1.4918z"/>
	<path class="st0" d="M30.8995,1.1349c-0.2263,1.8184-0.427,3.431-0.5864,4.7114C25.7267,5.67,21.2095,5.1983,16.7242,5.4079
		c-4.4483,0.2079-7.3761,1.7504-7.4657,7.7953c-0.1057,7.1373-0.0437,14.2774-0.0042,21.4161
		c0.0059,1.0584,0.1694,2.1493,0.4634,3.1664c0.9015,3.1178,3.0275,4.4348,6.3351,4.522c4.2389,0.1118,8.4923-0.3345,12.7397-0.5342
		c0.4595-0.0216,0.9209-0.0029,1.484-0.0029c0.2067,1.5765,0.4107,3.132,0.6339,4.834c-6.503,1.0063-13.0149,2.1894-19.5567,0.0516
		c-4.5663-1.4922-7.2735-4.6643-7.5629-9.4196C3.4492,31.624,3.4773,25.986,3.4506,20.3586
		c-0.0151-3.1923,0.0014-6.4038,0.3222-9.5744c0.5441-5.3779,3.3972-8.673,8.4995-9.962c4.0776-1.0302,8.2378-0.9182,12.3898-0.4334
		C26.7355,0.6308,28.8075,0.8843,30.8995,1.1349z"/>
</g>
</svg>
