<svg width="797" height="295" viewBox="0 0 797 295" fill="none" xmlns="http://www.w3.org/2000/svg">
<g clip-path="url(#clip0_839_12930)">
<path d="M65.0087 222.561C75.3346 225.261 81.0536 231.757 82.8217 241.79C83.2205 244.053 83.4046 246.377 83.4389 248.676C83.5244 254.421 83.6097 260.172 83.4309 265.912C83.2087 273.044 81.1417 279.531 75.7809 284.594C71.6921 288.455 66.7493 290.736 61.2752 291.652C57.5895 292.269 53.8126 292.577 50.0739 292.6C33.9763 292.699 17.8777 292.643 1.7794 292.643C1.2184 292.643 0.6575 292.643 0 292.643C0 247.908 0.0001 203.274 0.0001 158.446C0.6049 158.446 1.1559 158.446 1.7068 158.446C17.7533 158.446 33.7998 158.443 49.8463 158.448C56.1485 158.45 62.3053 159.213 67.889 162.409C73.8189 165.803 77.2653 171.047 78.4419 177.683C78.9768 180.699 79.031 183.819 79.0915 186.897C79.1911 191.968 79.1393 197.042 79.114 202.115C79.0679 211.345 74.9001 217.949 66.479 221.818C66.0857 221.998 65.7057 222.208 65.0087 222.561ZM12.3955 281.566C13.0698 281.566 13.63 281.566 14.1901 281.566C26.5554 281.566 38.9208 281.58 51.2861 281.552C53.3954 281.547 55.5232 281.5 57.6091 281.222C61.0048 280.77 64.1302 279.57 66.6739 277.155C69.9093 274.083 71.0328 270.078 71.092 265.861C71.1907 258.839 71.13 251.803 70.7734 244.792C70.5224 239.855 68.1917 235.82 63.9795 233C59.5354 230.025 54.4699 229.366 49.3452 229.314C37.4985 229.194 25.6497 229.276 13.8017 229.276C13.3522 229.276 12.9026 229.276 12.3955 229.276C12.3956 246.737 12.3956 264.05 12.3955 281.566ZM12.4134 169.327C12.4134 185.831 12.4134 202.115 12.4134 218.51C13.045 218.51 13.604 218.51 14.1631 218.51C24.774 218.51 35.3855 218.573 45.9954 218.467C48.7479 218.44 51.5673 218.179 54.2314 217.52C62.6114 215.45 66.4214 209.759 66.7367 202.344C67.0311 195.421 66.9004 188.473 66.7557 181.54C66.6869 178.243 65.4967 175.271 62.9039 172.996C59.5564 170.06 55.4377 169.413 51.2765 169.372C38.8035 169.247 26.3284 169.327 13.8541 169.327C13.3995 169.327 12.9451 169.327 12.4134 169.327Z" fill="white"/>
<path d="M407.808 149.581C405.294 152.981 402.953 156.156 400.603 159.325C392.344 170.464 384.089 181.606 375.82 192.737C368.226 202.959 360.598 213.155 353.017 223.386C342.166 238.03 331.346 252.697 320.507 267.351C314.614 275.317 308.718 283.282 302.786 291.219C302.473 291.638 301.806 292.023 301.299 292.03C296.747 292.092 292.193 292.066 287.273 292.066C288.651 290.2 289.863 288.524 291.109 286.875C297.087 278.96 302.922 270.929 309.145 263.211C311.269 260.576 311.49 258.358 310.657 255.258C305.658 236.641 300.864 217.969 295.989 199.319C291.78 183.216 287.554 167.118 283.343 151.017C283.228 150.575 283.199 150.11 283.119 149.581C324.594 149.581 366.034 149.581 407.808 149.581ZM320.496 247.998C342.097 218.908 363.505 190.078 385.057 161.056C355.801 161.056 326.853 161.056 297.791 161.055C305.341 189.966 312.872 218.805 320.496 247.998Z" fill="#A51E22"/>
<path d="M633.047 281.419C654.247 281.419 675.349 281.419 696.539 281.419C696.539 285.192 696.539 288.841 696.539 292.566C671.29 292.566 646.052 292.566 620.723 292.566C620.723 247.928 620.723 203.284 620.723 158.543C645.866 158.543 670.998 158.543 696.223 158.543C696.223 162.172 696.223 165.821 696.223 169.605C675.192 169.605 654.153 169.605 633.032 169.605C633.032 185.922 633.032 202.103 633.032 218.42C652.58 218.42 672.17 218.42 691.864 218.42C691.864 222.196 691.864 225.839 691.864 229.673C672.304 229.673 652.723 229.673 633.047 229.673C633.047 246.971 633.047 264.081 633.047 281.419Z" fill="white"/>
<path d="M501.635 172.761C498.939 175.456 496.31 178.084 493.57 180.822C480.686 168.754 465.232 163.134 447.546 164.525C432.254 165.728 419.183 172.165 408.854 183.543C386.371 208.31 389.527 243.212 409.435 264.404C430.147 286.453 468.262 290.928 494.157 265.978C496.783 268.597 499.408 271.215 502.04 273.84C481.518 295.826 440.937 303.462 410.074 280.139C376.254 254.582 373.148 207.802 398.447 178.042C426.325 145.249 473.756 145.577 501.635 172.761Z" fill="#A51E22"/>
<path d="M266.526 265.941C269.151 268.564 271.775 271.187 274.406 273.815C259.338 290.009 231.938 299.289 205.326 291.576C175.384 282.898 157.558 257.448 154.686 232.161C152.772 215.308 156.246 199.598 165.467 185.278C173.749 172.415 185.071 163.106 199.31 157.646C227.109 146.985 256.123 155.042 273.825 172.69C271.167 175.343 268.509 177.998 265.844 180.659C240.37 156.849 203.445 160.351 182.309 182.349C160.431 205.118 160.586 239.161 179.521 261.855C199.909 286.288 239.98 291.715 266.526 265.941Z" fill="#A51E22"/>
<path d="M795.063 161.133C794.641 164.275 794.224 167.214 793.862 170.161C793.732 171.225 793.492 171.605 792.21 171.362C786.991 170.375 781.757 169.409 776.489 168.754C771.443 168.126 766.347 167.562 761.273 167.566C753.916 167.571 746.481 167.538 739.499 170.546C734.582 172.664 732.232 176.664 731.437 181.702C730.41 188.215 730.74 194.774 731.13 201.313C731.5 207.533 734.316 212.203 740.441 214.21C746.551 216.214 752.725 218.045 758.934 219.719C766.923 221.874 774.97 223.815 782.544 227.244C789.239 230.275 794.207 234.862 795.526 242.449C796.07 245.575 796.525 248.753 796.592 251.916C796.696 256.921 796.807 261.973 796.264 266.935C794.884 279.551 789.918 288.229 775.292 292.316C769.877 293.829 764.306 294.48 758.703 294.466C753.237 294.451 747.746 294.359 742.313 293.823C734.19 293.023 726.214 291.34 718.491 288.597C717.474 288.236 717.045 287.883 717.418 286.62C718.136 284.186 718.583 281.671 719.086 279.178C719.288 278.174 719.698 278.067 720.677 278.288C727.127 279.74 733.544 281.511 740.077 282.374C746.494 283.222 753.036 283.358 759.523 283.348C764.205 283.341 768.897 282.685 773.355 280.956C779.372 278.624 782.635 274.107 783.685 267.913C784.788 261.407 784.481 254.847 783.991 248.311C783.512 241.936 779.92 237.753 773.995 235.857C767.39 233.744 760.666 231.985 753.952 230.231C746.096 228.178 738.149 226.464 730.894 222.585C724.617 219.229 720.989 214.015 719.722 207.086C718.558 200.721 718.317 194.278 718.523 187.842C718.681 182.891 719.232 177.95 721.106 173.273C724.127 165.732 729.997 161.505 737.495 159.189C743.157 157.44 748.992 156.676 754.888 156.623C760.189 156.575 765.498 156.756 770.795 157.025C778.525 157.417 786.119 158.766 793.603 160.733C794.086 160.86 794.567 160.997 795.063 161.133Z" fill="white"/>
<path d="M526.887 292.565C526.887 247.818 526.887 203.214 526.887 158.528C530.958 158.528 534.968 158.528 539.123 158.528C539.122 199.468 539.122 240.382 539.122 281.433C559.169 281.433 579.073 281.433 599.092 281.433C599.092 285.206 599.092 288.846 599.092 292.565C575.047 292.565 551.007 292.565 526.887 292.565Z" fill="white"/>
<path d="M113.19 158.5C117.291 158.5 121.264 158.5 125.319 158.5C125.319 203.188 125.319 247.822 125.319 292.549C121.324 292.549 117.311 292.549 113.189 292.549C113.189 247.94 113.19 203.271 113.19 158.5Z" fill="white"/>
<path d="M292.095 140.485C288.33 140.485 284.815 140.509 281.301 140.452C280.921 140.445 280.297 140.039 280.211 139.708C277.844 130.601 275.533 121.48 273.155 112.138C262.715 113.342 252.271 114.547 241.559 115.783C241.205 109.354 240.86 103.083 240.508 96.6855C243.045 96.804 245.61 96.8872 248.171 97.0554C250.11 97.1828 252.039 97.4719 253.979 97.5948C257.979 97.8481 261.986 97.9949 265.985 98.2654C271.203 98.6183 276.414 99.0542 281.629 99.4428C283.423 99.5765 285.219 99.6882 287.015 99.7875C291.023 100.009 295.034 100.176 299.039 100.44C303.754 100.751 308.464 101.141 313.174 101.497C313.174 103.431 313.174 105.438 313.174 107.496C303.547 108.61 294.109 109.702 284.402 110.825C286.96 120.685 289.509 130.515 292.095 140.485Z" fill="#A51E22"/>
<path d="M407.789 105.574C407.596 105.32 407.419 105.126 407.287 104.906C406.4 103.42 405.227 102.813 403.376 102.843C395.719 102.968 388.059 102.896 380.285 102.896C380.285 99.1211 380.285 95.3749 380.285 91.4252C380.772 91.4252 381.317 91.4252 381.863 91.4252C391.024 91.4252 400.185 91.4461 409.345 91.3975C410.432 91.3917 411.176 91.6845 411.861 92.5095C415.152 96.4752 418.502 100.393 421.765 104.381C422.013 104.685 421.953 105.548 421.697 105.911C419.741 108.677 417.731 111.407 415.667 114.094C415.109 114.822 415.002 115.447 415.281 116.299C416.897 121.251 418.472 126.217 420.054 131.181C420.191 131.613 420.276 132.062 420.418 132.639C416.853 133.772 413.302 134.902 409.64 136.066C407.96 130.793 406.334 125.695 404.713 120.594C404.038 118.471 403.437 116.321 402.676 114.229C402.324 113.263 402.54 112.578 403.106 111.834C404.663 109.789 406.187 107.72 407.789 105.574Z" fill="#A51E22"/>
<path d="M758.338 0.807617C761.029 0.807617 763.66 0.807617 766.435 0.807617C773.094 13.8634 779.79 26.9928 786.486 40.1222C786.568 40.1154 786.65 40.1086 786.732 40.1018C786.732 27.0322 786.732 13.9625 786.732 0.838417C788.716 0.838417 790.499 0.838417 792.347 0.838417C792.347 16.2138 792.347 31.5155 792.347 47.0494C789.802 47.0494 787.289 47.0885 784.779 47.0047C784.427 46.9929 783.978 46.4395 783.77 46.0358C778.377 35.556 773.011 25.0626 767.639 14.5724C766.504 12.356 765.362 10.1432 763.886 7.98792C763.886 20.9532 763.886 33.9186 763.886 46.9709C761.927 46.9709 760.186 46.9709 758.338 46.9709C758.338 31.6512 758.338 16.3066 758.338 0.807617Z" fill="white"/>
<path d="M360.192 0.839355C362.125 0.839355 363.908 0.839355 365.753 0.839355C365.753 16.2286 365.753 31.5693 365.753 47.0584C363.22 47.0584 360.75 47.1016 358.284 47.0149C357.884 47.0008 357.35 46.4906 357.136 46.0763C351.145 34.4671 345.188 22.8406 339.224 11.2174C338.657 10.1117 338.084 9.00885 337.27 7.94815C337.27 20.9357 337.27 33.9232 337.27 46.9845C335.372 46.9845 333.634 46.9845 331.768 46.9845C331.768 31.6308 331.768 16.2933 331.768 0.766255C334.224 0.766255 336.743 0.736055 339.26 0.805955C339.562 0.814355 339.946 1.31645 340.128 1.67325C345.592 12.3353 351.036 23.0076 356.482 33.679C357.446 35.568 358.398 37.463 359.371 39.3472C359.516 39.6285 359.747 39.8656 360.192 40.4651C360.192 27.0023 360.192 13.9581 360.192 0.839355Z" fill="white"/>
<path d="M114.852 24.8329C114.852 28.1407 114.937 31.4513 114.834 34.7559C114.642 40.8443 111.573 44.8781 105.765 46.6687C99.8486 48.4924 93.9498 48.4004 88.2955 45.6892C84.3631 43.8036 81.9482 40.5328 81.766 36.1875C81.4459 28.5556 81.2049 20.8972 81.4844 13.2701C81.7414 6.25864 85.5761 1.70634 93.5616 0.467139C98.3353 -0.273661 103.106 -0.235061 107.598 1.83464C112.941 4.29654 114.985 8.78064 114.961 14.4351C114.945 17.9009 114.958 21.3668 114.958 24.8327C114.923 24.8328 114.887 24.8329 114.852 24.8329ZM87.1975 23.8548C87.1975 27.2185 87.1354 30.5836 87.2132 33.9454C87.3123 38.2275 89.5236 41.2532 93.4952 42.0462C95.6396 42.4744 97.8967 42.829 100.049 42.6312C105.442 42.1355 109.094 40.0701 109.213 33.5475C109.329 27.1328 109.296 20.7136 109.22 14.2977C109.16 9.31134 107.145 6.67714 102.261 5.61214C100.058 5.13174 97.6855 5.24464 95.4024 5.35314C90.4362 5.58914 87.2082 9.10254 87.1987 14.0744C87.1924 17.3344 87.1975 20.5946 87.1975 23.8548Z" fill="white"/>
<path d="M426.548 46.9911C424.545 46.9911 422.8 46.9911 420.922 46.9911C420.922 31.6363 420.922 16.2968 420.922 0.861328C422.691 0.861328 424.523 0.861328 426.466 0.861328C426.466 7.45463 426.466 14.0101 426.466 20.7031C433.418 20.7031 440.262 20.7031 447.237 20.7031C447.237 14.1493 447.237 7.55303 447.237 0.861628C449.203 0.861628 451.042 0.861628 452.993 0.861628C452.993 16.1787 452.993 31.5594 452.993 46.9804C451.108 46.9804 449.272 46.9804 447.338 46.9804C447.338 39.9832 447.338 33.0617 447.338 26.0381C440.392 26.0381 433.545 26.0381 426.548 26.0381C426.548 32.9967 426.548 39.9066 426.548 46.9911Z" fill="white"/>
<path d="M543.603 47.0615C541.738 47.0615 540.09 47.1244 538.454 47.0145C538.074 46.989 537.559 46.439 537.405 46.0204C536.318 43.0694 535.261 40.1054 534.305 37.11C533.995 36.1357 533.534 35.8519 532.552 35.859C526.808 35.9005 521.064 35.9134 515.32 35.8495C514.225 35.8373 513.782 36.2308 513.473 37.205C512.551 40.1091 511.508 42.9751 510.602 45.8839C510.33 46.7567 509.991 47.1422 509.027 47.0849C507.544 46.9969 506.053 47.0617 504.318 47.0617C505.423 43.8116 506.47 40.756 507.501 37.6951C511.463 25.9295 515.441 14.1692 519.348 2.38547C519.775 1.09867 520.316 0.596673 521.709 0.725673C523.402 0.882573 525.122 0.804473 526.828 0.745373C527.677 0.715973 528.027 0.969073 528.314 1.82647C533.031 15.9223 537.801 30.0005 542.561 44.0819C542.868 44.9898 543.194 45.8916 543.603 47.0615ZM532.384 30.8211C529.601 22.1907 526.854 13.6711 524.106 5.15137C523.984 5.18327 523.862 5.21527 523.74 5.24717C521.009 13.7293 518.278 22.2115 515.506 30.8211C521.187 30.8211 526.655 30.8211 532.384 30.8211Z" fill="white"/>
<path d="M169.068 0.762184C175.464 0.762184 181.729 0.621484 187.983 0.820284C191.215 0.922984 194.389 1.72998 196.707 4.35028C198.27 6.11718 198.951 8.24838 199.002 10.5503C199.074 13.8093 199.103 17.0738 199.002 20.3313C198.797 26.9622 194.677 29.7509 189.822 30.0955C184.9 30.4449 179.933 30.1726 174.822 30.1726C174.822 36.0052 174.822 41.458 174.822 46.9843C172.823 46.9843 170.986 46.9843 169.068 46.9843C169.068 31.6008 169.068 16.2558 169.068 0.762184ZM174.862 6.25498C174.862 12.4933 174.862 18.8342 174.862 25.291C179.211 25.291 183.498 25.4608 187.766 25.2413C191.706 25.0387 193.217 23.1744 193.217 19.2688C193.217 16.5276 193.226 13.7864 193.214 11.0453C193.203 8.50078 191.818 6.45798 189.306 6.32698C184.537 6.07828 179.745 6.25498 174.862 6.25498Z" fill="white"/>
<path d="M256.849 5.88905C256.849 10.8911 256.849 15.6811 256.849 20.6028C263.429 20.6028 269.971 20.6028 276.593 20.6028C276.593 22.3633 276.593 23.9953 276.593 25.7601C270.076 25.7601 263.534 25.7601 256.894 25.7601C256.894 31.1887 256.894 36.4872 256.894 41.9329C263.949 41.9329 271.01 41.9329 278.148 41.9329C278.148 43.661 278.148 45.2437 278.148 46.9438C269.145 46.9438 260.137 46.9438 251.061 46.9438C251.061 31.5722 251.061 16.2333 251.061 0.831055C260.038 0.831055 268.961 0.831055 277.957 0.831055C277.957 2.52775 277.957 4.15695 277.957 5.88905C270.947 5.88905 263.98 5.88905 256.849 5.88905Z" fill="white"/>
<path d="M704.751 41.9199C704.751 43.7169 704.751 45.2547 704.751 46.9256C695.773 46.9256 686.812 46.9256 677.76 46.9256C677.76 31.5903 677.76 16.2892 677.76 0.876953C686.654 0.876953 695.578 0.876953 704.602 0.876953C704.602 2.44675 704.602 4.07905 704.602 5.89425C697.63 5.89425 690.579 5.89425 683.457 5.89425C683.457 10.8665 683.457 15.6574 683.457 20.6088C690.021 20.6088 696.561 20.6088 703.181 20.6088C703.181 22.3968 703.181 24.0261 703.181 25.7805C696.656 25.7805 690.153 25.7805 683.517 25.7805C683.517 31.1914 683.517 36.48 683.517 41.9199C690.549 41.9199 697.563 41.9199 704.751 41.9199Z" fill="white"/>
<path d="M622.164 1.49181C621.948 3.09091 621.739 4.63961 621.512 6.32391C618.971 6.02641 616.596 5.64731 614.206 5.49251C610.62 5.26031 606.993 4.86231 603.477 5.96261C600.603 6.86241 599.142 8.92371 599.103 11.9627C599.012 19.1979 598.949 26.4336 598.913 33.6693C598.908 34.8437 599.007 36.0354 599.215 37.1908C599.768 40.2672 601.851 41.8291 604.771 42.2716C609.02 42.9156 613.244 42.5282 617.503 41.7216C617.503 36.445 617.503 31.2821 617.503 26.0217C619.415 26.0217 621.255 26.0217 623.23 26.0217C623.256 26.3273 623.318 26.7167 623.319 27.1063C623.325 32.9011 623.306 38.696 623.34 44.4907C623.346 45.4551 623.165 45.8671 622.073 46.1138C615.273 47.65 608.467 48.6715 601.552 46.9403C595.821 45.5059 593.495 41.5124 593.361 36.7556C593.122 28.2311 593.022 19.6834 593.386 11.1676C593.647 5.04941 596.863 1.61991 603.529 0.514614C609.703 -0.509086 615.893 0.0863142 622.164 1.49181Z" fill="white"/>
<path d="M30.8999 1.13529C30.6736 2.95369 30.4729 4.56629 30.3135 5.84669C25.7271 5.67039 21.2099 5.19869 16.7246 5.40829C12.2763 5.61619 9.34851 7.15869 9.25891 13.2036C9.15321 20.3409 9.21521 27.481 9.25471 34.6197C9.26061 35.6781 9.42411 36.769 9.71811 37.7861C10.6196 40.9039 12.7456 42.2209 16.0532 42.3081C20.2921 42.4199 24.5455 41.9736 28.7929 41.7739C29.2524 41.7523 29.7138 41.771 30.2769 41.771C30.4836 43.3475 30.6876 44.903 30.9108 46.605C24.4078 47.6113 17.8959 48.7944 11.3541 46.6566C6.78781 45.1644 4.08061 41.9923 3.79121 37.237C3.44961 31.6244 3.47771 25.9864 3.45101 20.359C3.43591 17.1667 3.45241 13.9552 3.77321 10.7846C4.31731 5.40669 7.17041 2.11159 12.2727 0.822587C16.3503 -0.207613 20.5105 -0.0956131 24.6625 0.389187C26.7359 0.631187 28.8079 0.884687 30.8999 1.13529Z" fill="white"/>
</g>
<defs>
<clipPath id="clip0_839_12930">
<rect width="796.677" height="294.466" fill="white"/>
</clipPath>
</defs>
</svg>
